<?xml version="1.0" standalone="no"?>
<!DOCTYPE svg PUBLIC "-//W3C//DTD SVG 20010904//EN"
 "http://www.w3.org/TR/2001/REC-SVG-20010904/DTD/svg10.dtd">
<svg version="1.0" xmlns="http://www.w3.org/2000/svg"
 width="360.000000pt" height="360.000000pt" viewBox="0 0 360.000000 360.000000"
 preserveAspectRatio="xMidYMid meet">
<metadata>
Created by potrace 1.14, written by Peter Selinger 2001-2017
</metadata>
<g transform="translate(0.000000,360.000000) scale(0.100000,-0.100000)"
fill="#000000" stroke="none">
<path d="M1 2798 c1 -442 5 -785 9 -763 4 22 10 54 13 70 22 126 51 239 78
300 14 35 13 32 23 68 5 15 12 27 16 27 4 0 10 14 14 30 8 43 118 240 134 240
7 0 10 4 7 10 -5 8 35 73 56 90 3 3 11 15 18 27 7 15 17 20 29 17 13 -5 14 -4
3 4 -13 9 -2 25 86 119 6 7 17 13 23 13 6 0 9 4 6 8 -3 5 22 33 56 63 33 30
66 59 72 64 56 50 108 85 117 79 8 -5 9 -3 4 6 -6 10 -4 12 8 7 10 -4 16 -2
14 4 -1 6 7 16 18 22 10 7 25 18 33 25 7 7 18 9 24 6 6 -4 8 -3 5 3 -6 9 218
130 253 137 8 2 29 9 45 15 17 7 35 14 40 15 6 2 24 8 40 15 17 7 39 14 50 15
12 1 26 5 32 9 7 4 13 0 16 -10 4 -17 5 -17 6 -1 1 11 12 20 29 24 15 3 44 10
66 16 21 5 50 7 65 3 18 -4 22 -3 12 4 -10 6 -3 9 23 9 21 0 40 3 43 6 4 3
-352 6 -790 6 l-797 0 1 -802z"/>
<path d="M2080 3585 c36 -7 68 -11 72 -9 4 3 9 0 13 -5 3 -6 12 -8 19 -5 8 3
17 0 21 -5 3 -6 11 -8 17 -5 8 5 9 1 4 -11 -5 -15 -4 -16 8 -6 16 13 82 6 92
-10 3 -5 9 -7 14 -4 4 3 13 -1 19 -9 7 -8 21 -12 31 -9 12 3 20 0 20 -6 0 -7
5 -9 10 -6 6 3 10 1 10 -5 0 -6 4 -9 9 -6 5 3 34 -5 65 -19 31 -14 57 -24 59
-23 1 1 12 -4 25 -11 20 -11 21 -15 10 -29 -11 -15 -11 -15 3 -5 16 13 62 6
53 -8 -3 -5 4 -9 15 -9 24 0 25 -6 8 -36 -7 -12 -20 -20 -29 -19 -10 2 -18 -1
-18 -6 0 -18 45 -2 56 20 11 21 32 29 26 10 -1 -5 1 -8 5 -8 25 4 45 -4 69
-26 15 -14 32 -25 38 -25 6 0 24 -11 40 -25 24 -21 27 -27 16 -40 -7 -8 -9
-15 -4 -15 5 0 2 -5 -6 -10 -11 -7 -11 -10 -2 -10 7 0 11 -4 7 -9 -3 -5 -1
-12 4 -16 6 -3 8 3 6 15 -2 11 2 20 8 20 8 0 8 3 -2 9 -10 7 -11 10 0 16 7 5
19 0 30 -14 10 -12 21 -21 26 -21 10 2 21 -32 16 -50 -4 -13 -3 -13 5 -1 6 8
8 21 5 30 -4 11 1 9 17 -6 27 -25 34 -79 12 -88 -12 -4 -12 -8 -1 -22 12 -15
12 -16 -4 -10 -10 4 -20 7 -22 7 -2 0 3 16 11 36 8 20 10 33 5 29 -6 -3 -11
-13 -11 -21 0 -8 -4 -13 -8 -10 -5 3 -8 -5 -7 -16 1 -12 7 -24 13 -26 6 -2 10
-9 8 -15 -1 -7 -1 -9 1 -4 3 4 11 7 18 7 8 0 14 8 15 18 3 56 6 72 15 69 6 -2
10 -13 10 -24 0 -12 4 -25 8 -29 4 -5 5 -1 1 9 -4 11 -1 17 9 17 10 0 14 -7
10 -22 -4 -19 -3 -20 6 -8 8 11 11 12 11 2 0 -7 4 -11 9 -7 5 3 12 -3 16 -14
3 -11 13 -22 21 -25 8 -3 12 -10 9 -16 -3 -5 0 -10 7 -10 7 0 22 -12 33 -27
11 -15 28 -35 38 -45 9 -10 17 -22 17 -28 0 -5 6 -10 13 -10 9 0 9 -2 -1 -8
-9 -6 -3 -15 18 -31 17 -12 35 -32 40 -44 13 -29 33 -60 43 -68 5 -3 8 -9 8
-13 -3 -23 0 -36 8 -31 5 3 13 0 17 -6 4 -8 3 -9 -4 -5 -7 4 -12 2 -12 -3 0
-6 5 -11 10 -11 6 0 10 -11 10 -25 0 -14 5 -24 11 -23 18 5 21 -18 5 -35 -12
-12 -13 -17 -3 -20 7 -3 2 -9 -13 -15 -14 -6 -20 -11 -13 -11 6 -1 14 -9 16
-18 4 -14 5 -14 6 3 0 12 9 28 18 35 10 8 14 9 10 2 -4 -6 -3 -14 3 -18 5 -3
10 2 11 12 0 14 2 14 6 3 8 -25 10 -35 11 -44 0 -5 5 -12 12 -16 8 -5 6 -11
-5 -20 -13 -11 -15 -9 -16 11 -1 13 -1 27 0 31 0 4 -8 6 -19 5 -25 -2 -25 -6
-3 -23 10 -7 14 -16 9 -21 -5 -4 -11 -2 -13 5 -3 6 -12 12 -21 12 -14 0 -14
-1 1 -12 15 -12 15 -15 0 -46 -9 -18 -19 -30 -22 -25 -3 4 -15 15 -26 23 -11
8 -17 11 -13 6 4 -4 -2 -18 -13 -29 -23 -25 -21 -38 9 -52 25 -11 31 -30 6
-21 -9 3 -12 2 -9 -5 4 -6 -4 -8 -22 -4 -23 4 -24 4 -8 -4 16 -8 17 -10 4 -10
-12 -1 -16 -10 -15 -31 0 -17 4 -30 8 -30 5 0 8 -5 8 -11 0 -5 -4 -8 -8 -5 -5
3 -9 -1 -9 -8 0 -8 7 -12 16 -9 11 3 10 0 -3 -11 -14 -11 -22 -13 -27 -5 -4 8
-14 4 -28 -10 -29 -29 -53 -28 -42 2 5 12 16 21 24 21 9 -1 16 1 15 5 -2 18 3
22 15 13 10 -8 13 -6 14 9 1 12 -3 17 -10 13 -8 -5 -8 -3 1 7 14 16 16 43 2
34 -6 -4 -8 -11 -5 -16 4 -5 1 -9 -4 -9 -6 0 -11 -7 -11 -16 0 -34 -17 -2 -18
33 0 29 2 33 8 18 7 -16 9 -17 9 -3 1 9 -9 24 -21 32 -12 9 -17 16 -10 16 7 0
10 5 6 12 -5 8 -11 6 -20 -6 -8 -11 -14 -13 -19 -7 -4 7 -17 -1 -33 -18 l-27
-30 -1 27 c-1 15 1 21 3 14 4 -10 8 -10 19 -1 8 6 14 16 14 21 0 11 -32 7 -41
-6 -9 -12 -31 3 -23 16 4 7 2 8 -4 4 -7 -4 -12 -2 -12 4 0 6 7 13 15 16 8 4
13 9 11 13 -2 3 7 11 20 18 23 11 27 8 23 -23 0 -3 10 -14 22 -25 15 -13 25
-16 29 -9 4 6 13 12 21 13 23 4 40 18 33 28 -3 5 -16 1 -30 -10 -41 -32 -70
-5 -66 62 1 15 -2 27 -8 27 -5 0 -7 -7 -4 -15 7 -16 -12 -45 -28 -45 -6 0 -7
8 -3 18 4 9 8 22 9 28 1 7 8 19 15 28 12 14 11 16 -4 10 -11 -5 -16 -4 -12 3
4 5 0 19 -8 29 -12 16 -13 17 -12 2 1 -9 -2 -16 -8 -15 -5 1 -9 5 -8 9 2 5 -2
7 -9 5 -6 -1 -14 7 -16 18 -4 17 -3 18 13 5 17 -14 17 -14 4 8 -8 12 -15 18
-17 12 -2 -6 -9 -7 -15 -3 -18 11 -37 12 -37 2 0 -6 8 -9 18 -7 13 2 17 -5 19
-30 1 -20 -3 -30 -9 -26 -7 4 -8 2 -4 -4 10 -17 26 -15 26 4 0 8 5 12 10 9 6
-4 8 -11 4 -17 -4 -5 3 -8 16 -6 13 2 25 -3 28 -11 3 -8 0 -11 -6 -7 -12 7
-23 -18 -12 -30 4 -5 4 -20 -1 -33 -7 -18 -12 -21 -23 -12 -16 13 -19 64 -3
54 6 -3 7 -1 3 6 -12 19 -26 2 -22 -29 4 -32 -16 -42 -31 -15 -6 10 -13 11
-23 5 -13 -8 -12 -10 3 -10 10 0 15 -5 12 -10 -4 -6 -9 -8 -13 -6 -4 2 -12 -2
-19 -9 -10 -10 -9 -15 4 -19 9 -4 18 -4 21 -1 3 3 -1 5 -9 5 -12 0 -12 2 1 10
9 5 17 5 21 -1 3 -6 16 -11 27 -12 28 -2 29 -22 2 -24 -13 -1 -18 2 -14 9 4 7
2 8 -4 4 -18 -11 -14 -27 6 -25 9 1 20 1 25 0 12 -2 -45 -61 -59 -61 -7 0 -18
-18 -24 -40 -6 -24 -17 -40 -25 -40 -18 0 -19 -12 -3 -28 9 -9 9 -12 0 -12
-20 0 -27 4 -24 14 2 5 -3 4 -11 -2 -10 -8 -16 -9 -25 0 -12 12 -12 -8 1 -28
4 -7 0 -14 -7 -17 -8 -3 -16 -1 -18 5 -8 22 -30 -4 -25 -29 3 -15 0 -22 -7
-20 -6 2 -11 12 -11 22 0 10 -8 19 -18 21 -10 1 -14 -2 -10 -9 4 -7 0 -8 -13
-3 -15 6 -16 5 -7 -5 10 -10 16 -9 29 2 15 12 16 12 10 -7 -5 -16 -1 -24 11
-29 31 -14 42 -13 36 0 -2 8 7 24 21 36 14 13 26 29 26 36 0 8 5 11 10 8 6 -4
7 -12 3 -18 -4 -7 0 -6 10 2 14 11 18 11 23 -2 3 -9 12 -13 21 -10 11 4 14 2
9 -5 -5 -8 -1 -10 10 -5 11 4 15 2 11 -4 -8 -12 20 -26 34 -17 5 3 9 0 9 -5 0
-6 -7 -11 -15 -11 -8 0 -15 -5 -15 -11 0 -6 -9 -9 -19 -6 -20 5 -38 -20 -25
-32 4 -3 9 0 11 7 3 6 11 12 19 12 9 0 12 -5 9 -11 -4 -6 2 -5 14 3 12 7 21
18 21 25 0 6 5 13 12 15 7 3 2 13 -13 28 -17 16 -19 21 -6 17 9 -4 17 -2 17 4
0 6 -14 8 -36 4 -34 -5 -36 -4 -23 12 11 15 11 16 -1 6 -17 -15 -40 -17 -40
-3 0 6 6 10 13 10 8 0 13 16 14 46 1 38 6 51 29 69 39 31 52 20 14 -12 -16
-13 -30 -35 -30 -46 0 -17 2 -19 9 -7 6 8 8 17 6 21 -3 3 5 15 17 25 21 18 21
18 15 0 -5 -13 -3 -17 7 -13 11 4 14 -1 11 -21 -2 -15 -2 -21 1 -14 3 6 9 10
12 8 4 -2 7 7 7 20 0 13 -3 24 -7 24 -5 0 -8 7 -8 16 0 13 4 12 26 -5 14 -11
32 -17 40 -14 8 3 14 0 14 -6 0 -6 -14 -11 -31 -11 -25 0 -29 -3 -20 -13 6 -8
8 -17 4 -21 -4 -4 0 -4 10 0 9 3 15 9 12 13 -2 4 2 8 10 8 12 0 12 -4 -2 -19
-11 -13 -13 -18 -4 -16 7 2 20 -7 28 -20 9 -13 11 -22 5 -22 -6 0 -9 -7 -6
-15 4 -8 10 -15 15 -15 4 0 6 6 3 13 -3 8 2 14 11 14 11 0 15 -6 12 -19 -3
-10 -1 -18 4 -18 5 0 9 5 9 11 0 5 6 7 13 3 7 -5 7 -1 -3 12 -8 10 -10 16 -6
12 5 -4 15 -3 23 4 10 8 17 8 25 0 9 -9 8 -12 -5 -12 -9 0 -17 -7 -17 -16 0
-8 4 -13 9 -10 5 3 12 -1 15 -10 5 -12 1 -14 -17 -9 -17 5 -19 4 -7 -4 12 -8
12 -11 1 -11 -7 0 -11 -6 -8 -14 3 -8 1 -17 -6 -20 -7 -3 -1 -3 13 0 24 6 24
6 7 -12 -18 -18 -19 -18 -32 -1 -8 11 -16 14 -19 8 -4 -5 3 -15 14 -21 11 -6
20 -16 20 -22 0 -7 -4 -7 -14 1 -10 9 -16 8 -26 -4 -7 -8 -9 -15 -6 -15 4 0 1
-6 -6 -14 -17 -18 -33 -9 -17 10 9 12 9 13 -3 9 -9 -4 -14 -20 -14 -47 0 -31
2 -36 9 -21 4 10 18 23 30 28 12 6 23 16 23 23 3 23 4 23 21 7 16 -16 18 -16
31 1 13 16 14 16 9 2 -3 -10 -2 -20 3 -23 6 -4 10 -1 10 4 0 6 8 11 18 11 16
-1 16 -1 -1 -11 -14 -8 -15 -14 -6 -31 9 -16 8 -19 -3 -13 -7 5 -10 5 -6 0 4
-4 3 -13 -2 -20 -7 -8 -5 -12 5 -12 8 0 11 5 8 10 -4 6 0 8 10 4 9 -3 27 3 41
14 22 17 26 18 26 5 0 -9 -6 -16 -12 -16 -10 0 -9 -3 1 -9 11 -7 11 -9 0 -13
-8 -3 1 -8 19 -12 17 -4 32 -12 32 -17 0 -5 5 -9 10 -9 6 0 6 7 -2 19 -7 11
-18 17 -27 13 -14 -5 -14 -4 -1 10 13 14 16 14 23 2 5 -8 13 -12 19 -8 6 4 5
10 -3 15 -12 7 -12 9 0 9 14 0 40 28 41 43 0 4 -9 7 -21 7 -11 0 -18 4 -15 9
7 11 25 9 46 -4 13 -7 13 -6 2 7 -8 10 -9 19 -4 22 6 3 12 -1 16 -9 7 -19 26
-19 26 0 0 8 -4 15 -10 15 -5 0 -7 7 -3 16 5 14 -3 15 -61 12 -49 -3 -66 0
-66 9 0 7 -6 12 -12 11 -7 -2 -14 7 -16 20 -3 17 2 25 17 29 24 6 26 14 9 31
-14 14 0 16 21 3 11 -7 11 -13 -3 -32 -9 -13 -20 -23 -23 -21 -4 2 -8 -1 -9
-8 -2 -6 0 -6 2 -1 4 7 10 6 19 -2 7 -7 11 -15 8 -19 -2 -5 1 -8 6 -8 6 0 11
5 11 10 0 6 3 9 8 9 18 -3 32 2 32 12 0 5 -4 7 -10 4 -13 -8 -13 1 0 26 7 13
8 25 1 37 -9 14 -10 11 -11 -16 0 -18 -4 -31 -9 -28 -5 3 -7 14 -4 25 3 13 -2
20 -19 24 -41 12 -52 9 -38 -8 7 -9 10 -19 6 -23 -4 -4 -12 1 -17 11 -12 20
-35 23 -43 5 -4 -7 -4 -3 -2 9 2 13 0 26 -5 29 -5 3 -9 -9 -9 -25 0 -17 -4
-31 -9 -31 -13 0 -22 28 -10 36 5 3 7 14 4 25 -4 11 -3 18 2 17 4 -1 18 1 30
6 23 7 24 21 8 60 -5 11 -3 21 5 26 7 4 9 13 6 19 -4 6 -2 11 3 11 6 0 11 -5
11 -11 0 -6 7 -9 15 -5 8 3 19 -2 24 -12 6 -10 11 -12 11 -4 0 6 4 12 10 12 5
0 7 -8 3 -17 -3 -12 1 -10 12 5 16 22 18 22 30 5 7 -9 11 -24 8 -33 -4 -13 -4
-13 6 0 9 13 11 13 11 -1 0 -23 -26 -31 -44 -14 -17 17 -36 20 -36 5 0 -5 7
-10 15 -10 9 0 12 -6 8 -17 -5 -14 -3 -16 7 -6 10 9 18 8 35 -3 16 -10 25 -12
30 -5 3 6 1 11 -5 11 -6 0 1 11 16 25 15 14 32 25 38 25 6 0 5 4 -3 9 -7 5
-11 13 -7 19 3 6 1 14 -5 18 -8 5 -11 -1 -8 -17 3 -15 -2 -31 -13 -41 -12 -13
-18 -14 -18 -5 0 7 5 18 10 23 7 7 4 10 -12 10 -13 -1 -22 4 -20 12 2 11 -5
14 -24 11 -4 0 -11 5 -15 13 -7 10 -9 10 -9 -1 0 -11 -3 -12 -11 -4 -12 12 -1
41 25 63 21 16 21 -3 1 -23 -13 -13 -12 -16 2 -22 10 -3 14 -3 11 1 -4 3 0 13
8 22 12 11 21 12 38 4 17 -8 23 -7 23 3 0 8 -7 11 -16 7 -13 -5 -14 -3 -3 10
10 13 10 17 -4 22 -12 4 -15 2 -10 -9 3 -9 0 -15 -9 -15 -8 0 -14 3 -13 8 3 8
-5 12 -27 12 -8 0 -15 -7 -15 -15 0 -18 -11 -19 -29 -2 -11 10 -12 9 -6 -2 13
-23 15 -85 3 -73 -6 6 -11 22 -12 37 -1 14 -5 25 -10 24 -5 0 -13 7 -18 16
-11 18 8 49 24 39 5 -3 1 -13 -9 -21 -17 -14 -17 -14 1 -5 10 5 27 7 38 4 12
-3 17 0 15 9 -2 8 -2 11 0 7 3 -5 9 -8 15 -8 6 0 6 6 -2 15 -17 20 0 19 29 -2
18 -12 22 -13 16 -2 -6 11 -5 12 6 2 21 -21 34 -15 14 7 -9 10 -27 18 -38 17
-11 -1 -21 4 -23 11 -1 7 0 8 3 2 2 -5 9 -10 14 -10 6 0 7 5 3 12 -4 6 -3 8 4
4 6 -3 13 -2 17 4 9 14 28 1 21 -15 -3 -8 -1 -15 4 -17 17 -6 59 -172 48 -186
-6 -7 -8 -15 -4 -19 3 -3 6 -1 6 6 0 7 5 9 11 5 6 -3 9 -15 6 -25 -3 -11 0
-19 6 -19 8 0 7 -4 -2 -9 -8 -5 -9 -10 -2 -12 6 -2 12 -15 13 -29 2 -14 8 -29
13 -33 6 -5 -1 -6 -15 -2 l-25 6 25 -15 c15 -9 19 -15 10 -15 -20 -1 -35 10
-42 30 -5 13 -1 16 15 13 21 -4 21 -4 2 5 -30 14 -34 13 -32 -11 2 -27 15 -42
42 -46 11 -2 23 -9 27 -15 4 -7 8 338 8 766 l0 777 -792 -1 c-676 -1 -783 -3
-728 -14z m1355 -1005 c3 -5 1 -10 -4 -10 -6 0 -11 5 -11 10 0 6 2 10 4 10 3
0 8 -4 11 -10z m-357 -178 c2 -7 -5 -9 -19 -7 -34 7 -42 21 -12 19 15 0 29 -6
31 -12z m36 -88 c2 -12 10 -18 22 -16 16 3 16 2 4 -13 -10 -13 -15 -13 -21 -3
-5 7 -9 9 -9 4 0 -5 -9 -1 -21 10 -12 10 -23 17 -24 14 -2 -3 -7 -2 -11 3 -4
4 0 7 9 7 10 0 16 3 16 8 -1 4 -1 14 0 22 1 12 3 12 17 -1 8 -9 17 -25 18 -35z
m99 16 c8 0 12 -14 11 -37 -1 -21 2 -43 7 -49 6 -8 4 -14 -6 -17 -8 -4 -20
-20 -27 -37 l-13 -32 -23 31 c-18 25 -20 31 -7 31 9 0 20 -10 25 -22 6 -17 9
-18 9 -6 1 9 -7 24 -16 33 -17 18 -28 100 -12 89 5 -3 9 2 9 11 0 12 5 15 16
11 9 -3 21 -6 27 -6z m147 -20 c0 -5 -2 -10 -4 -10 -3 0 -8 5 -11 10 -3 6 -1
10 4 10 6 0 11 -4 11 -10z m-385 -119 c-3 -6 -11 -8 -17 -5 -6 4 -5 9 3 15 16
10 23 4 14 -10z m-112 -76 c-7 -21 -13 -19 -13 6 0 11 4 18 10 14 5 -3 7 -12
3 -20z m167 10 c7 -9 8 -15 2 -15 -5 0 -12 7 -16 15 -3 8 -4 15 -2 15 2 0 9
-7 16 -15z m315 -51 c-3 -44 -15 -57 -16 -18 0 16 -3 22 -6 14 -3 -8 -10 -18
-16 -21 -5 -4 -9 -18 -9 -33 0 -14 -5 -26 -10 -26 -5 0 -6 5 -3 10 3 6 1 10
-6 10 -10 0 -10 3 -1 12 7 7 12 20 12 30 0 10 5 18 10 18 6 0 10 5 10 11 0 7
-9 6 -23 -4 -15 -10 -29 -12 -38 -6 -8 5 -11 9 -6 10 19 4 23 5 44 17 17 9 22
9 26 -1 4 -9 7 -9 18 1 10 9 10 12 0 12 -7 0 -9 5 -5 11 11 18 21 -8 19 -47z
m75 6 c0 -5 -7 -10 -16 -10 -8 0 -12 5 -9 10 3 6 10 10 16 10 5 0 9 -4 9 -10z
m-140 -40 c0 -5 -7 -13 -16 -18 -9 -5 -15 -12 -15 -15 3 -20 0 -28 -9 -22 -10
6 -3 32 14 52 13 15 26 16 26 3z m63 -42 c-2 -5 1 -8 6 -8 14 0 14 13 -1 28
-9 9 -8 12 4 12 9 0 18 -8 21 -19 2 -10 16 -20 32 -23 23 -5 26 -3 22 14 -4
14 -1 18 10 16 9 -2 17 -11 19 -21 1 -9 -2 -15 -6 -12 -5 3 -12 1 -15 -5 -4
-6 -16 -8 -27 -4 -14 4 -18 2 -14 -5 4 -6 1 -11 -6 -11 -10 0 -9 -3 2 -11 12
-8 9 -9 -12 -5 -16 4 -28 2 -28 -4 0 -5 -8 -10 -17 -10 -14 0 -15 2 -5 9 11 7
11 9 -2 14 -9 4 -16 1 -16 -5 0 -6 -3 -9 -6 -5 -3 3 -2 12 2 19 11 17 13 48 3
48 -5 0 -6 7 -2 15 5 14 8 14 23 -2 10 -10 16 -21 13 -25z m62 12 c-3 -5 -12
-10 -18 -10 -7 0 -6 4 3 10 19 12 23 12 15 0z m35 -60 c16 -10 4 -30 -21 -33
-8 -2 -20 -6 -26 -10 -8 -5 -13 -3 -13 6 0 18 24 28 48 20 14 -5 13 -3 -3 10
-21 18 -10 23 15 7z"/>
<path d="M3090 2331 c0 -6 4 -13 10 -16 6 -3 7 1 4 9 -7 18 -14 21 -14 7z"/>
<path d="M3183 2279 c14 -23 24 -24 24 -5 0 8 -8 17 -18 19 -15 4 -16 2 -6
-14z"/>
<path d="M3193 2233 c0 -7 4 -13 8 -13 4 0 9 6 12 13 3 8 0 14 -7 14 -7 0 -13
-6 -13 -14z"/>
<path d="M3325 1977 c7 -16 42 -20 51 -5 4 7 2 8 -4 4 -6 -4 -21 -2 -32 4 -15
8 -18 8 -15 -3z"/>
<path d="M1625 3580 c-3 -6 1 -13 10 -16 13 -5 13 -9 3 -23 -12 -14 -11 -15 5
-2 17 13 17 16 3 26 -9 7 -13 15 -9 18 3 4 4 7 0 7 -3 0 -9 -5 -12 -10z"/>
<path d="M1696 3579 c2 -4 -4 -12 -13 -18 -10 -6 -13 -11 -6 -11 6 0 15 5 18
10 4 6 11 7 17 4 7 -5 8 -2 3 6 -6 10 -4 12 9 7 9 -4 15 -3 11 2 -3 6 -14 9
-25 8 -10 -1 -17 -4 -14 -8z"/>
<path d="M1880 3580 c-9 -6 -10 -10 -3 -10 6 0 15 5 18 10 8 12 4 12 -15 0z"/>
<path d="M1920 3586 c0 -2 7 -9 15 -16 9 -7 15 -8 15 -2 0 5 -7 12 -15 16 -8
3 -15 4 -15 2z"/>
<path d="M1788 3558 c5 -5 16 -8 23 -6 8 3 3 7 -10 11 -17 4 -21 3 -13 -5z"/>
<path d="M2015 3559 c-3 -4 2 -6 10 -5 21 3 28 13 10 13 -9 0 -18 -4 -20 -8z"/>
<path d="M1542 3544 c10 -10 20 -16 22 -13 3 3 -5 11 -17 18 -21 13 -21 12 -5
-5z"/>
<path d="M1973 3545 c0 -8 4 -12 9 -9 4 3 8 9 8 15 0 5 -4 9 -8 9 -5 0 -9 -7
-9 -15z"/>
<path d="M2110 3546 c0 -2 9 -6 20 -9 11 -3 18 -1 14 4 -5 9 -34 13 -34 5z"/>
<path d="M2175 3540 c3 -5 8 -10 11 -10 2 0 4 5 4 10 0 6 -5 10 -11 10 -5 0
-7 -4 -4 -10z"/>
<path d="M1477 3529 c7 -7 15 -10 18 -7 3 3 -2 9 -12 12 -14 6 -15 5 -6 -5z"/>
<path d="M1650 3525 c-11 -13 -11 -18 0 -28 10 -9 11 -9 6 1 -4 7 -2 19 4 27
7 8 10 15 7 15 -2 0 -10 -7 -17 -15z"/>
<path d="M1816 3528 c3 -5 10 -6 15 -3 13 9 11 12 -6 12 -8 0 -12 -4 -9 -9z"/>
<path d="M1878 3533 c6 -2 9 -9 6 -14 -3 -6 -12 -5 -22 3 -15 12 -16 11 -3 -5
10 -13 17 -15 27 -6 15 12 10 29 -9 28 -9 0 -8 -2 1 -6z"/>
<path d="M2066 3518 c3 -5 10 -6 15 -3 13 9 11 12 -6 12 -8 0 -12 -4 -9 -9z"/>
<path d="M2317 3509 c4 -13 8 -18 11 -10 2 7 -1 18 -6 23 -8 8 -9 4 -5 -13z"/>
<path d="M1984 3505 c-16 -13 -16 -14 -1 -9 9 3 25 0 35 -7 16 -13 16 -12 2 6
-8 11 -15 21 -15 22 -1 2 -10 -4 -21 -12z"/>
<path d="M1485 3490 c-10 -11 -13 -20 -7 -20 7 0 12 5 12 11 0 5 4 8 8 5 5 -3
9 1 9 9 0 19 0 19 -22 -5z"/>
<path d="M2282 3501 c-11 -7 -10 -9 3 -14 9 -4 14 -3 10 2 -3 5 1 12 7 14 7 3
9 6 3 6 -5 0 -16 -3 -23 -8z"/>
<path d="M2190 3488 c0 -9 8 -22 18 -29 16 -13 16 -13 2 5 -8 11 -13 21 -12
23 2 3 1 7 -2 11 -3 3 -6 -2 -6 -10z"/>
<path d="M1670 3486 c0 -3 9 -10 20 -16 11 -6 20 -8 20 -6 0 3 -9 10 -20 16
-11 6 -20 8 -20 6z"/>
<path d="M1910 3481 c0 -6 5 -13 12 -17 6 -4 8 -3 4 4 -3 6 2 13 11 15 14 4
13 5 -4 6 -13 0 -23 -3 -23 -8z"/>
<path d="M2110 3480 c18 -12 30 -13 30 -2 0 4 -10 9 -22 9 -18 2 -20 0 -8 -7z"/>
<path d="M1776 3457 c3 -10 9 -15 12 -12 3 3 0 11 -7 18 -10 9 -11 8 -5 -6z"/>
<path d="M2434 3463 c10 -10 46 -11 40 -1 -3 4 -15 8 -26 8 -12 0 -18 -3 -14
-7z"/>
<path d="M1890 3451 c0 -6 4 -13 10 -16 6 -3 7 1 4 9 -7 18 -14 21 -14 7z"/>
<path d="M2096 3448 c3 -5 10 -6 15 -3 13 9 11 12 -6 12 -8 0 -12 -4 -9 -9z"/>
<path d="M2248 3453 c9 -3 10 -9 3 -17 -7 -8 -5 -12 9 -12 15 0 16 4 9 18 -5
10 -15 18 -22 17 -9 0 -8 -2 1 -6z"/>
<path d="M2494 3453 c3 -6 0 -14 -6 -17 -9 -4 -8 -5 2 -5 29 2 55 -3 43 -8
-10 -3 -10 -7 0 -18 8 -8 14 -9 19 -2 10 16 -2 37 -21 37 -9 0 -23 6 -30 13
-9 8 -12 8 -7 0z"/>
<path d="M1966 3442 c-3 -5 1 -9 9 -9 8 0 15 4 15 9 0 4 -4 8 -9 8 -6 0 -12
-4 -15 -8z"/>
<path d="M1080 3431 c0 -6 4 -13 10 -16 6 -3 7 1 4 9 -7 18 -14 21 -14 7z"/>
<path d="M2081 3433 c-1 -17 16 -25 25 -12 4 7 3 9 -4 5 -5 -3 -13 0 -15 6 -4
9 -6 10 -6 1z"/>
<path d="M2366 3427 c3 -10 9 -15 12 -12 3 3 0 11 -7 18 -10 9 -11 8 -5 -6z"/>
<path d="M2437 3434 c-11 -12 -8 -24 6 -21 6 1 11 -3 10 -9 -2 -8 6 -10 20 -6
18 5 19 7 4 10 -9 2 -14 8 -11 14 4 6 2 8 -4 4 -5 -3 -12 -1 -14 5 -2 5 -7 7
-11 3z"/>
<path d="M1715 3420 c3 -5 8 -10 11 -10 2 0 4 5 4 10 0 6 -5 10 -11 10 -5 0
-7 -4 -4 -10z"/>
<path d="M1740 3420 c0 -5 5 -10 11 -10 5 0 7 5 4 10 -3 6 -8 10 -11 10 -2 0
-4 -4 -4 -10z"/>
<path d="M1813 3409 c-2 -23 3 -25 10 -4 4 8 3 16 -1 19 -4 3 -9 -4 -9 -15z"/>
<path d="M2030 3416 c0 -8 4 -17 9 -20 5 -4 7 3 4 14 -6 23 -13 26 -13 6z"/>
<path d="M1676 3408 c3 -5 10 -6 15 -3 13 9 11 12 -6 12 -8 0 -12 -4 -9 -9z"/>
<path d="M1290 3401 c0 -6 4 -13 10 -16 6 -3 7 1 4 9 -7 18 -14 21 -14 7z"/>
<path d="M2156 3399 c2 -4 -4 -12 -13 -18 -10 -6 -13 -11 -6 -11 6 0 15 5 18
11 5 6 12 4 22 -8 13 -17 13 -17 4 3 -6 12 -8 23 -6 26 3 3 -2 5 -10 5 -8 0
-12 -4 -9 -8z"/>
<path d="M2285 3400 c-3 -6 1 -7 9 -4 18 7 21 14 7 14 -6 0 -13 -4 -16 -10z"/>
<path d="M2382 3398 c-16 -16 -15 -25 2 -25 8 0 12 6 8 15 -4 11 -1 13 8 7 9
-5 11 -4 6 3 -9 15 -9 15 -24 0z"/>
<path d="M2106 3385 c-11 -8 -15 -15 -9 -15 6 0 16 7 23 15 16 19 11 19 -14 0z"/>
<path d="M2213 3385 c0 -8 4 -12 9 -9 5 3 6 10 3 15 -9 13 -12 11 -12 -6z"/>
<path d="M2320 3389 c-13 -9 -13 -10 1 -6 9 3 23 0 30 -6 11 -10 11 -9 0 6 -7
9 -14 17 -15 17 0 0 -8 -5 -16 -11z"/>
<path d="M2516 3385 c4 -8 11 -15 16 -15 6 0 5 6 -2 15 -7 8 -14 15 -16 15 -2
0 -1 -7 2 -15z"/>
<path d="M1540 3386 c0 -3 9 -10 20 -16 11 -6 20 -8 20 -6 0 3 -9 10 -20 16
-11 6 -20 8 -20 6z"/>
<path d="M2051 3376 c-9 -10 -9 -16 -1 -21 6 -4 10 -3 9 2 -3 20 2 27 11 13 6
-9 10 -10 10 -3 0 19 -17 24 -29 9z"/>
<path d="M2477 3377 c3 -5 -1 -13 -8 -18 -10 -6 -10 -9 -2 -9 7 0 17 8 22 18
7 14 6 19 -4 19 -8 0 -11 -5 -8 -10z"/>
<path d="M1364 3369 c-3 -6 -2 -15 3 -20 5 -5 9 -1 9 11 0 23 -2 24 -12 9z"/>
<path d="M1897 3369 c7 -7 15 -10 18 -7 3 3 -2 9 -12 12 -14 6 -15 5 -6 -5z"/>
<path d="M1209 3353 c-11 -15 -11 -16 1 -5 18 15 34 16 24 0 -4 -7 -3 -8 5 -4
12 8 6 26 -8 26 -5 0 -15 -8 -22 -17z"/>
<path d="M1519 3353 c-13 -16 -12 -17 4 -4 9 7 17 15 17 17 0 8 -8 3 -21 -13z"/>
<path d="M2504 3350 c0 -13 4 -16 10 -10 7 7 7 13 0 20 -6 6 -10 3 -10 -10z"/>
<path d="M2650 3360 c0 -5 5 -10 10 -10 6 0 10 5 10 10 0 6 -4 10 -10 10 -5 0
-10 -4 -10 -10z"/>
<path d="M1933 3345 c0 -8 4 -12 9 -9 5 3 6 10 3 15 -9 13 -12 11 -12 -6z"/>
<path d="M2190 3340 c-6 -11 -8 -20 -6 -20 3 0 10 9 16 20 6 11 8 20 6 20 -3
0 -10 -9 -16 -20z"/>
<path d="M2228 3353 c7 -3 16 -2 19 1 4 3 -2 6 -13 5 -11 0 -14 -3 -6 -6z"/>
<path d="M2346 3351 c-4 -5 -2 -12 3 -15 5 -4 12 -2 15 3 4 5 2 12 -3 15 -5 4
-12 2 -15 -3z"/>
<path d="M2537 3353 c-11 -11 -8 -21 9 -27 13 -5 14 -4 6 7 -7 8 -9 17 -5 20
3 4 4 7 1 7 -2 0 -8 -3 -11 -7z"/>
<path d="M976 3333 c-6 -14 -5 -15 5 -6 7 7 10 15 7 18 -3 3 -9 -2 -12 -12z"/>
<path d="M1827 3337 c-3 -8 1 -14 9 -14 16 0 19 13 5 21 -5 3 -11 0 -14 -7z"/>
<path d="M2016 3337 c3 -10 9 -15 12 -12 3 3 0 11 -7 18 -10 9 -11 8 -5 -6z"/>
<path d="M2071 3337 c-8 -10 -7 -14 2 -14 8 0 14 6 14 14 0 7 -1 13 -2 13 -2
0 -8 -6 -14 -13z"/>
<path d="M2260 3345 c0 -6 6 -17 13 -24 10 -12 8 -13 -8 -7 -14 5 -17 4 -9 -4
12 -12 44 -3 44 12 0 5 -4 7 -9 3 -6 -3 -14 3 -20 12 -6 10 -11 13 -11 8z"/>
<path d="M895 3331 c-3 -5 -2 -12 3 -15 5 -3 9 1 9 9 0 17 -3 19 -12 6z"/>
<path d="M1605 3330 c3 -5 8 -10 11 -10 2 0 4 5 4 10 0 6 -5 10 -11 10 -5 0
-7 -4 -4 -10z"/>
<path d="M2130 3325 c0 -8 4 -15 10 -15 5 0 7 7 4 15 -4 8 -8 15 -10 15 -2 0
-4 -7 -4 -15z"/>
<path d="M2405 3331 c-3 -5 -2 -12 3 -15 5 -3 9 1 9 9 0 17 -3 19 -12 6z"/>
<path d="M1268 3323 c7 -3 16 -2 19 1 4 3 -2 6 -13 5 -11 0 -14 -3 -6 -6z"/>
<path d="M1426 3321 c-3 -5 2 -15 11 -22 14 -12 16 -12 8 0 -6 11 -4 13 8 8
23 -9 21 0 -2 13 -11 6 -22 6 -25 1z"/>
<path d="M1496 3321 c3 -3 19 -6 35 -7 37 0 27 10 -12 12 -16 1 -27 -2 -23 -5z"/>
<path d="M1703 3310 c13 -19 14 -27 4 -39 -11 -14 -10 -14 5 -2 18 14 11 41
-14 57 -6 4 -4 -3 5 -16z"/>
<path d="M1780 3320 c-12 -8 -10 -10 8 -10 13 0 20 4 17 10 -7 12 -6 12 -25 0z"/>
<path d="M2370 3326 c0 -2 8 -10 18 -17 15 -13 16 -12 3 4 -13 16 -21 21 -21
13z"/>
<path d="M2693 3315 c-16 -17 9 -29 26 -12 8 8 11 8 11 0 0 -7 -5 -15 -11 -18
-7 -5 -4 -14 7 -26 16 -17 16 -19 1 -19 -10 0 -17 -4 -17 -10 0 -5 6 -7 14 -4
8 3 17 1 21 -5 3 -6 1 -11 -6 -11 -7 0 -9 -3 -6 -7 4 -3 2 -12 -5 -20 -9 -11
-7 -12 7 -7 14 6 16 4 10 -6 -6 -9 -4 -11 5 -5 10 6 12 4 7 -8 -7 -19 22 -32
37 -17 8 8 6 9 -7 4 -10 -3 -17 -3 -15 2 1 5 -4 20 -11 33 -9 17 -10 26 -2 34
16 16 14 27 -4 21 -10 -4 -13 0 -10 15 2 12 0 19 -6 16 -5 -4 -9 0 -9 9 0 8 4
16 9 18 5 2 3 12 -5 22 -10 14 -14 16 -14 5 0 -9 -3 -10 -8 -3 -5 9 -10 8 -19
-1z"/>
<path d="M1855 3310 c-3 -6 1 -7 9 -4 18 7 21 14 7 14 -6 0 -13 -4 -16 -10z"/>
<path d="M2523 3305 c0 -8 4 -12 9 -9 5 3 6 10 3 15 -9 13 -12 11 -12 -6z"/>
<path d="M2477 3289 c4 -13 8 -18 11 -10 2 7 -1 18 -6 23 -8 8 -9 4 -5 -13z"/>
<path d="M2597 3290 c2 -8 13 -16 24 -16 18 0 18 2 5 12 -9 6 -14 13 -11 16 3
2 -1 5 -9 5 -7 0 -11 -7 -9 -17z"/>
<path d="M2765 3300 c3 -5 8 -10 11 -10 2 0 4 5 4 10 0 6 -5 10 -11 10 -5 0
-7 -4 -4 -10z"/>
<path d="M1595 3290 c3 -6 1 -10 -6 -10 -7 0 -10 -3 -6 -6 3 -3 13 -2 22 4 16
8 16 9 1 15 -10 4 -15 3 -11 -3z"/>
<path d="M2345 3280 c10 -11 20 -20 23 -20 3 0 -3 9 -13 20 -10 11 -20 20 -23
20 -3 0 3 -9 13 -20z"/>
<path d="M1536 3281 c-3 -5 2 -15 12 -22 15 -12 16 -12 5 2 -7 9 -10 19 -6 22
3 4 4 7 0 7 -3 0 -8 -4 -11 -9z"/>
<path d="M1630 3280 c0 -5 5 -10 11 -10 5 0 7 5 4 10 -3 6 -8 10 -11 10 -2 0
-4 -4 -4 -10z"/>
<path d="M1900 3278 c0 -6 -15 -8 -34 -6 -19 2 -32 0 -30 -4 5 -8 -2 -10 -51
-13 -17 0 -42 -9 -55 -18 -14 -9 -29 -17 -35 -17 -5 0 -43 -14 -83 -30 -41
-16 -79 -27 -85 -23 -6 4 -7 1 -2 -7 6 -10 3 -12 -13 -8 -12 4 -20 3 -17 -2 3
-4 -2 -11 -11 -14 -23 -9 -26 -8 -18 7 4 7 3 9 -2 4 -5 -5 -9 -14 -9 -20 0 -7
-15 -19 -33 -29 -19 -9 -49 -30 -68 -47 -19 -17 -34 -30 -34 -27 0 2 -16 -12
-35 -31 -21 -21 -39 -32 -47 -27 -7 4 -10 4 -6 -1 4 -4 -4 -22 -17 -39 -38
-46 -38 -47 -62 -96 -28 -58 -42 -120 -32 -145 4 -11 8 -32 8 -47 1 -14 12
-59 26 -99 13 -40 22 -76 20 -80 -3 -4 -2 -9 2 -11 11 -4 71 -240 65 -256 -2
-7 -9 -9 -14 -6 -6 4 -9 3 -6 -2 8 -13 -10 -56 -21 -50 -5 4 -8 -2 -7 -11 2
-10 -1 -34 -5 -55 -12 -50 5 -134 37 -181 13 -21 22 -43 18 -49 -4 -6 -3 -8 3
-5 5 3 25 -9 43 -28 33 -35 91 -61 121 -57 14 3 27 -17 34 -53 1 -5 5 -17 8
-25 9 -22 16 -74 23 -175 l7 -90 -37 -13 c-20 -7 -36 -17 -36 -23 0 -5 -20
-18 -44 -30 -25 -11 -57 -37 -72 -57 -16 -21 -30 -39 -33 -42 -4 -3 -21 -23
-39 -45 -18 -22 -59 -66 -89 -97 -51 -52 -64 -59 -137 -78 -105 -28 -333 -99
-516 -162 -197 -66 -182 -65 -204 -26 -97 166 -172 329 -162 353 3 9 2 14 -3
11 -4 -3 -13 5 -18 17 -15 32 -63 229 -78 317 -11 64 -13 -43 -14 -727 l-1
-803 1800 0 1800 0 0 813 0 812 -55 -1 c-30 0 -58 -3 -61 -7 -4 -4 -2 -8 4 -8
32 -4 37 -6 34 -17 -1 -7 2 -12 8 -12 5 0 10 7 10 15 0 9 9 15 25 15 21 0 25
-5 25 -29 0 -17 -5 -33 -10 -36 -7 -4 -7 -12 0 -25 7 -13 7 -21 0 -25 -5 -3
-11 -4 -11 -1 -1 3 -2 9 -3 14 -1 4 -5 13 -9 20 -5 7 -3 14 6 18 7 2 14 11 14
19 0 18 -9 19 -25 3 -6 -6 -19 -13 -28 -14 -9 -1 -13 0 -10 3 8 8 -14 44 -23
38 -5 -2 -11 -14 -14 -26 -4 -15 -2 -19 9 -15 8 3 14 2 14 -2 0 -4 10 -12 22
-17 12 -6 23 -17 25 -25 4 -13 2 -13 -9 1 -18 21 -46 30 -50 17 -5 -15 -48 8
-47 25 0 9 2 9 6 0 7 -19 19 -16 20 6 1 13 -3 18 -12 14 -11 -4 -13 3 -10 26
4 34 2 36 -26 21 -11 -7 -19 -7 -19 -1 0 5 5 11 12 13 8 3 8 7 2 11 -6 3 -22
0 -37 -8 -15 -8 -27 -11 -27 -7 0 3 -5 1 -12 -6 -8 -8 -15 -9 -25 -1 -7 7 -13
9 -13 5 0 -3 -12 -1 -26 4 -14 6 -23 6 -20 1 3 -5 -4 -11 -16 -14 -16 -4 -18
-3 -9 6 19 19 12 31 -9 12 -10 -9 -18 -22 -17 -27 1 -6 -8 -12 -20 -14 -13 -2
-23 1 -23 6 0 6 8 10 18 10 14 0 15 2 2 10 -9 6 -11 10 -3 10 7 0 10 7 7 15
-9 22 -34 19 -29 -4 3 -15 0 -18 -13 -14 -12 5 -10 -2 8 -27 22 -31 34 -70 21
-68 -20 2 -31 -3 -26 -12 3 -5 0 -10 -7 -10 -9 0 -9 -3 2 -10 22 -14 30 -12
24 5 -4 8 -1 15 5 15 6 0 10 -3 9 -7 -2 -5 7 -18 20 -31 18 -18 20 -25 10 -36
-11 -12 -14 -11 -19 3 -4 9 -1 19 5 24 6 4 1 6 -12 4 -12 -2 -28 -9 -35 -16
-10 -11 -8 -12 11 -6 12 3 21 3 20 -2 -5 -19 14 -52 27 -47 8 3 13 10 12 16
-1 6 6 12 16 13 9 2 17 -2 17 -8 0 -7 8 -3 17 8 15 19 15 19 9 -5 -4 -14 -8
-32 -8 -40 -1 -8 -8 -20 -17 -27 -13 -10 -13 -12 -2 -13 8 0 11 -3 8 -7 -4 -3
1 -12 11 -19 26 -20 37 -16 17 6 -12 13 -14 20 -5 20 6 0 10 7 7 14 -4 10 -1
13 9 9 11 -4 12 -9 5 -16 -6 -6 -11 -16 -11 -21 0 -6 5 -3 11 7 6 9 14 15 20
12 5 -4 6 2 2 11 -4 12 -3 15 6 10 7 -5 9 -16 5 -28 -4 -13 -2 -18 4 -14 6 3
13 2 17 -4 3 -5 -1 -10 -9 -10 -8 0 -18 5 -21 10 -4 6 -11 7 -17 4 -6 -4 -5
-9 3 -15 11 -6 10 -9 -4 -15 -10 -4 -23 -2 -30 5 -23 23 -27 10 -6 -20 l22
-32 19 26 c19 26 44 27 60 3 4 -6 13 -5 25 5 16 12 17 12 7 -1 -6 -8 -10 -32
-9 -53 2 -28 -3 -40 -16 -47 -24 -13 -29 -13 -29 4 0 10 7 12 23 8 20 -5 21
-4 8 11 -12 16 -16 16 -36 3 -21 -14 -24 -14 -29 0 -3 8 -1 12 4 9 5 -3 18 -1
27 4 11 6 13 11 5 11 -7 0 -10 5 -7 10 5 8 11 7 21 -1 22 -18 29 -2 9 21 -22
24 -55 26 -55 4 0 -9 5 -12 13 -8 6 4 -1 -5 -16 -19 -21 -20 -38 -27 -68 -27
-23 0 -39 5 -39 12 0 6 -3 8 -7 4 -4 -4 -8 -15 -8 -23 0 -9 -7 -19 -15 -21
-13 -5 -13 -3 0 13 14 17 13 18 -3 12 -10 -4 -21 -7 -23 -7 -3 0 0 -9 6 -19 7
-13 7 -22 0 -26 -5 -3 -10 3 -10 14 0 12 -5 21 -11 21 -6 0 -9 -7 -6 -14 4
-11 1 -13 -10 -9 -11 4 -14 2 -9 -5 4 -7 0 -10 -11 -8 -10 2 -25 -3 -32 -12
-13 -14 -12 -15 7 -10 12 4 22 2 22 -3 0 -16 -38 -10 -52 9 -7 10 -22 17 -33
17 -33 0 -24 29 10 31 17 1 25 0 18 -3 -9 -3 -10 -9 -1 -23 15 -23 40 -8 31
18 -4 13 -2 12 10 -3 15 -18 16 -19 17 -2 0 10 4 16 9 12 6 -3 14 3 20 12 5
10 12 17 15 16 20 -9 28 0 11 12 -19 15 -19 16 0 33 18 16 18 16 6 -1 -12 -14
-11 -17 3 -17 10 0 14 -4 11 -10 -3 -5 -2 -10 3 -10 13 0 20 19 17 47 -1 19 1
21 14 10 24 -18 40 -41 35 -49 -3 -5 6 -8 20 -8 28 0 42 15 25 26 -8 4 -9 3
-5 -4 4 -7 3 -12 -2 -12 -5 0 -14 11 -20 25 -6 14 -18 25 -27 25 -8 0 -15 3
-16 8 0 4 -2 17 -5 29 -2 13 3 23 12 27 8 3 12 11 8 17 -4 7 -3 9 4 5 6 -3 13
-2 17 4 3 5 -2 10 -12 10 -15 0 -16 2 -3 10 8 5 11 13 6 17 -9 9 -38 -26 -31
-38 3 -4 1 -10 -5 -14 -5 -3 -15 6 -20 20 -5 14 -15 23 -20 20 -6 -4 -8 -11
-5 -16 10 -15 -15 -10 -32 7 -13 12 -13 15 -2 14 26 -4 39 0 39 11 0 7 -10 9
-25 5 -15 -4 -25 -2 -25 4 0 6 6 8 13 4 9 -5 9 -4 0 6 -10 11 -9 17 4 32 17
19 8 24 -16 9 -8 -5 -11 -16 -8 -24 4 -11 1 -14 -8 -10 -8 3 -12 9 -9 14 3 5
1 9 -5 9 -7 0 -7 8 -1 25 6 16 6 25 0 25 -14 0 -12 27 3 33 9 4 9 6 -1 6 -7 1
-15 -6 -18 -14 -4 -8 -12 -15 -20 -15 -16 0 -33 -30 -27 -47 3 -7 0 -13 -6
-13 -6 0 -11 6 -11 14 0 8 -5 18 -12 22 -7 5 -8 3 -3 -6 6 -10 4 -12 -8 -7
-10 3 -17 4 -17 2 0 -12 24 -55 31 -55 4 0 6 -9 4 -20 -2 -12 0 -18 6 -15 5 4
7 10 4 14 -2 5 2 17 10 27 15 19 15 19 30 -1 9 -11 13 -25 11 -32 -3 -8 1 -10
12 -6 15 6 15 5 3 -10 -19 -23 -33 -21 -29 5 2 12 -3 23 -11 26 -10 3 -12 0
-8 -12 4 -9 3 -14 -2 -11 -16 10 -18 -9 -5 -50 7 -22 13 -32 13 -22 1 9 5 17
11 17 5 0 6 -8 3 -17 -6 -15 -4 -16 8 -7 11 9 17 8 28 -4 13 -14 13 -15 -7
-10 -15 4 -25 -1 -37 -18 -9 -13 -11 -25 -5 -25 5 -1 14 -2 19 -3 5 0 13 -4
17 -8 3 -4 -4 -5 -17 -3 l-24 4 25 -19 c14 -10 21 -22 17 -26 -4 -4 -7 -2 -7
5 0 7 -9 9 -24 5 -13 -3 -27 -1 -31 5 -3 7 -3 10 2 9 4 -2 9 0 11 5 6 19 0 27
-18 27 -11 0 -20 7 -20 15 0 18 12 19 28 3 9 -9 12 -9 12 0 0 18 -4 27 -12 25
-4 -2 -5 6 -3 17 2 11 -2 23 -8 27 -7 5 -19 17 -27 28 -15 20 -14 20 8 1 23
-20 28 -17 13 12 -5 9 -12 26 -16 37 -5 16 -8 17 -15 5 -6 -9 -5 -17 3 -22 8
-5 6 -8 -5 -8 -21 0 -22 4 -7 31 6 12 7 28 4 37 -6 13 -10 9 -20 -18 -18 -48
-18 -60 3 -60 13 0 14 -2 4 -9 -9 -5 -11 -18 -7 -37 6 -28 6 -28 -7 -6 -8 12
-18 19 -23 15 -5 -4 -3 0 5 10 12 16 12 20 0 27 -10 6 -11 12 -3 22 18 22 25
69 11 66 -7 -2 -17 -7 -21 -13 -5 -6 -7 -4 -4 5 2 8 10 14 16 12 6 -1 11 3 11
9 0 19 -25 3 -39 -25 -10 -22 -11 -30 -1 -39 10 -9 11 -8 6 7 -5 16 -4 17 9 6
11 -9 12 -16 4 -26 -6 -7 -9 -19 -6 -26 2 -7 0 -21 -5 -30 -8 -17 0 -23 25
-19 4 0 7 -3 7 -9 0 -17 -26 -11 -46 12 -10 12 -14 18 -8 15 14 -8 27 20 13
28 -5 4 -7 11 -4 16 7 10 -8 12 -19 2 -11 -11 -36 -12 -36 -1 0 6 7 7 16 4 8
-3 12 -2 9 4 -11 18 -23 11 -44 -26 -19 -32 -20 -37 -6 -57 18 -25 19 -37 4
-37 -5 0 -7 5 -4 10 3 6 1 10 -4 10 -6 0 -11 7 -11 15 0 8 -5 15 -11 15 -5 0
-7 -5 -4 -11 4 -6 -4 -9 -22 -7 -20 2 -27 -1 -25 -12 2 -12 -1 -11 -11 2 -12
15 -17 15 -40 3 -25 -13 -31 -11 -29 7 1 3 -6 9 -15 12 -12 5 -14 2 -10 -13 5
-19 -19 -38 -31 -26 -3 3 0 5 6 5 7 0 12 7 12 15 0 8 -6 14 -12 13 -7 -2 -14
8 -16 21 -2 14 0 21 7 17 5 -4 7 -14 4 -22 -5 -14 -3 -15 16 -4 22 11 24 37 2
32 -7 -1 -10 2 -6 8 3 6 10 8 15 5 4 -3 13 2 19 9 10 11 8 15 -6 19 -14 4 -12
5 5 6 14 1 22 6 19 14 -4 12 -17 13 -46 6 -7 -2 -16 2 -18 9 -3 9 2 13 13 12
11 -1 21 -1 24 0 25 9 41 7 36 -5 -3 -8 0 -17 6 -21 7 -4 6 -9 -3 -15 -11 -7
-10 -9 4 -9 9 0 17 6 17 13 0 8 3 9 8 1 8 -13 64 -25 56 -13 -3 5 -14 9 -25 9
-10 0 -19 4 -19 10 0 5 8 7 18 3 11 -3 9 1 -6 12 -14 10 -21 23 -17 33 3 8 0
19 -7 24 -10 8 -10 11 0 15 6 2 12 11 12 19 0 17 17 19 23 2 2 -7 -3 -19 -12
-26 -14 -11 -13 -12 4 -4 21 10 27 12 46 12 5 0 7 5 3 11 -5 8 -9 8 -14 -1 -5
-8 -10 -9 -14 -2 -10 16 13 25 29 12 12 -10 15 -10 15 -1 0 8 8 10 23 5 12 -3
19 -3 15 1 -4 4 -2 17 4 29 10 19 10 20 -5 7 -10 -7 -17 -10 -17 -5 0 5 -5 2
-10 -6 -7 -12 -12 -12 -22 -2 -9 9 -9 12 5 12 9 0 16 5 15 11 -2 6 4 14 12 16
13 4 13 3 0 -6 -9 -7 -10 -11 -3 -11 6 0 15 5 18 10 11 17 23 11 27 -12 2 -17
9 -22 23 -20 16 3 18 1 8 -9 -15 -15 -17 -33 -3 -24 6 3 10 2 10 -3 0 -5 -11
-12 -25 -14 -14 -3 -25 -1 -25 3 0 5 -4 9 -9 9 -5 0 -7 -8 -5 -17 4 -12 15
-18 35 -18 16 0 29 3 29 7 0 4 5 19 10 34 11 27 11 27 26 6 8 -11 14 -25 13
-29 -3 -20 2 -34 11 -28 6 4 8 10 5 14 -2 5 11 7 30 5 19 -1 37 2 41 7 3 5 0
9 -6 9 -6 0 -9 4 -6 8 3 5 -3 16 -13 24 -14 12 -22 13 -30 5 -8 -8 -11 -8 -11
0 0 6 6 15 13 21 10 8 16 6 25 -9 7 -11 17 -17 22 -14 15 9 0 33 -25 39 -13 3
-31 9 -42 13 -15 6 -16 5 -5 -9 18 -22 3 -28 -41 -19 -20 5 -38 7 -40 4 -3 -2
-4 7 -3 20 0 14 6 23 11 20 6 -2 2 2 -7 10 -10 8 -14 18 -10 22 4 5 2 5 -4 2
-6 -4 -19 2 -29 13 -10 12 -13 20 -7 20 7 0 12 -5 12 -11 0 -7 12 -9 35 -5 22
4 35 3 35 -4 0 -5 -6 -9 -12 -8 -7 2 -11 -4 -9 -12 3 -8 5 -25 5 -37 1 -17 6
-21 18 -17 9 2 19 0 23 -6 3 -5 12 -10 18 -10 7 0 0 8 -15 18 -36 22 -35 27 7
28 19 0 32 -3 30 -7 -6 -9 15 -6 33 4 7 5 12 3 12 -7 0 -13 21 -26 43 -26 11
0 9 15 -3 16 -5 1 -14 2 -20 3 -5 0 -10 6 -10 11 0 6 3 9 8 9 19 -3 33 2 27
11 -4 7 -12 7 -25 0 -13 -7 -21 -7 -25 0 -3 5 3 10 14 10 13 0 19 6 18 19 -1
14 -8 18 -27 16 -19 -2 -24 -7 -22 -23 4 -28 -15 -37 -29 -14 -7 12 -19 17
-31 14 -10 -2 -18 1 -18 7 0 7 5 9 10 6 12 -7 13 15 2 30 -4 6 -14 11 -22 13
-10 1 -9 -3 5 -14 l20 -16 -20 4 c-11 2 -23 8 -27 13 -4 6 -8 2 -8 -8 0 -11
-6 -17 -12 -14 -7 2 -13 11 -13 20 0 8 -4 19 -8 23 -4 4 -7 2 -7 -4 0 -11 -50
-42 -67 -42 -10 0 16 25 27 26 6 1 14 2 20 3 12 1 1 31 -12 31 -5 0 -6 -5 -2
-12 4 -6 3 -8 -3 -5 -6 4 -13 0 -17 -8 -9 -26 -23 -16 -19 13 3 20 2 23 -5 13
-6 -8 -9 -22 -7 -32 3 -12 -2 -15 -16 -12 -10 3 -19 10 -19 15 0 5 5 6 12 2 7
-4 8 -3 4 5 -4 6 -11 9 -16 6 -5 -3 -11 -1 -15 5 -3 5 3 10 15 10 12 0 18 5
15 10 -4 6 -11 8 -16 5 -5 -4 -9 0 -9 7 1 16 29 67 30 53 0 -5 11 -11 24 -11
19 -1 27 5 35 28 6 17 8 35 4 41 -4 7 1 8 13 4 18 -7 18 -7 0 8 -23 18 -4 20
23 3 25 -16 74 13 64 39 -5 12 -2 15 10 10 19 -7 31 8 20 26 -4 6 -7 21 -6 32
2 11 0 14 -3 8 -3 -7 -14 -13 -24 -13 -10 0 -21 -7 -24 -16 -3 -8 -11 -12 -17
-8 -8 5 -9 3 -5 -5 6 -9 12 -9 25 3 23 21 30 20 24 -4 -3 -11 -9 -17 -14 -14
-13 7 -7 -19 6 -28 6 -4 0 -8 -13 -8 -14 0 -22 5 -20 12 2 6 -4 20 -14 30 -10
10 -16 23 -13 28 3 6 -1 7 -9 4 -9 -3 -16 -10 -16 -16 0 -5 5 -6 10 -3 6 3 10
2 10 -4 0 -5 -8 -14 -17 -20 -10 -5 -14 -13 -9 -18 5 -4 11 -2 13 5 7 20 27
14 40 -13 9 -20 8 -25 -3 -25 -8 0 -14 5 -14 11 0 7 -11 9 -29 6 -26 -6 -29
-4 -27 23 0 15 4 26 8 24 5 -3 8 0 8 5 0 6 -5 11 -11 11 -6 0 -9 9 -6 20 3 10
-2 39 -10 62 -22 62 -24 80 -10 73 7 -4 4 0 -5 8 -10 8 -18 17 -18 21 0 11 24
2 37 -14 11 -13 12 -13 7 2 -3 9 -17 24 -30 33 -21 13 -23 19 -13 37 9 16 8
19 -2 13 -9 -6 -10 -3 -5 10 4 11 1 22 -6 27 -8 5 -3 7 14 4 26 -4 58 18 44
31 -3 3 -6 2 -6 -3 0 -5 -11 -11 -24 -12 -21 -1 -24 2 -23 33 1 19 6 35 11 35
6 0 5 4 -2 9 -8 4 -14 12 -14 17 0 5 -4 19 -9 32 -13 33 -11 40 9 51 15 9 14
10 -8 8 -18 -1 -25 3 -27 18 -5 36 -11 70 -13 70 -1 0 -3 11 -6 24 -4 19 -1
23 16 18 25 -6 25 -2 1 22 -14 14 -19 34 -20 76 0 31 -6 64 -13 73 -11 14 -10
15 6 9 15 -6 17 -5 8 6 -7 8 -8 18 -4 22 4 5 -2 5 -13 2 -20 -7 -20 -7 -1 8
11 8 16 15 10 15 -5 0 -2 4 6 10 9 5 19 5 26 -1 8 -7 15 -6 20 2 4 7 3 9 -4 5
-6 -3 -13 -2 -17 4 -4 6 -12 7 -18 4 -7 -4 1 6 16 21 18 17 27 34 24 46 -5 20
13 31 32 19 10 -5 9 -9 -3 -13 -9 -4 -16 -12 -15 -19 0 -10 2 -10 6 0 2 6 13
12 24 12 25 0 24 17 -1 25 -23 7 -27 25 -6 25 8 0 18 4 21 10 3 6 -1 7 -10 4
-10 -4 -15 -2 -13 6 2 7 -4 15 -12 17 -11 3 -12 2 -2 -5 10 -7 9 -14 -7 -33
l-20 -24 -13 33 c-7 17 -16 32 -20 32 -4 0 -4 8 -1 18 6 15 5 15 -10 3 -11 -9
-17 -10 -17 -2 0 6 -7 11 -16 11 -8 0 -12 5 -9 10 3 6 -3 10 -14 10 -11 0 -22
4 -25 9 -4 5 8 8 26 6 18 -2 25 -1 15 2 -14 4 -16 8 -6 19 6 7 16 11 22 7 6
-4 7 -1 3 6 -6 9 -13 8 -27 -5 -27 -24 -63 -30 -55 -9 3 10 2 13 -5 10 -6 -4
-17 1 -25 11 -9 11 -13 13 -9 7 3 -7 1 -13 -4 -13 -6 0 -11 5 -11 11 0 5 -4 8
-9 4 -5 -3 -18 5 -28 18 -10 13 -25 27 -33 32 -13 8 -13 7 0 -11 14 -18 14
-18 -6 -1 -11 9 -23 15 -26 12 -3 -3 -11 1 -18 10 -7 8 -22 15 -33 15 -11 0
-26 8 -34 18 -8 9 -11 11 -7 3 5 -11 3 -13 -9 -8 -9 3 -40 9 -69 13 -29 3 -63
12 -75 20 -12 8 -28 11 -36 8 -12 -4 -81 3 -194 20 -13 2 -23 -1 -23 -6z m885
-1400 c-1 -13 -3 -28 -4 -34 -1 -15 -43 -12 -48 3 -3 7 3 10 15 6 24 -6 34 8
20 27 -8 12 -9 12 -4 -2 3 -10 1 -18 -4 -18 -6 0 -10 9 -10 20 0 13 7 20 19
20 13 0 18 -6 16 -22z m-81 -179 c-3 -5 2 -6 11 -3 11 5 18 0 22 -15 5 -21 7
-21 30 -6 27 18 55 14 51 -7 -2 -7 2 -12 9 -11 7 2 17 -6 23 -17 9 -17 8 -19
-7 -13 -10 4 -29 18 -42 32 -18 18 -23 21 -18 8 6 -15 3 -17 -13 -12 -15 5
-20 2 -20 -12 0 -15 2 -16 10 -3 6 10 10 11 10 3 0 -7 -11 -20 -25 -29 -29
-19 -33 -34 -8 -34 9 0 14 2 11 5 -7 7 45 64 54 59 4 -3 -4 -16 -18 -31 -17
-18 -21 -29 -14 -38 8 -9 3 -11 -17 -8 -16 2 -34 5 -40 5 -17 2 -17 5 8 40 22
30 19 43 -9 43 -9 0 -17 5 -17 12 0 6 -4 15 -9 20 -5 5 -6 2 -1 -6 6 -10 4
-12 -4 -6 -9 5 -9 11 -3 17 6 6 8 18 4 27 -5 14 -3 14 11 2 9 -7 14 -17 11
-22z m220 -50 c-6 -11 -24 -2 -24 11 0 5 7 7 15 4 8 -4 12 -10 9 -15z m-229
-3 c15 -13 12 -46 -5 -56 -12 -7 -12 -11 0 -25 11 -14 11 -19 -3 -33 -16 -15
-17 -15 -18 3 -3 39 4 68 16 77 6 5 4 8 -5 8 -13 0 -13 1 0 11 13 9 13 10 0 6
-8 -2 -14 -10 -12 -16 1 -6 -2 -11 -7 -11 -6 0 -9 -12 -8 -26 1 -15 -4 -29
-11 -31 -15 -6 -10 32 10 77 12 29 23 33 43 16z m723 -54 c15 11 15 11 4 -4
-7 -9 -9 -18 -4 -20 14 -5 24 -58 12 -58 -6 0 -8 -4 -5 -10 10 -16 25 -12 25
8 0 14 2 14 9 3 5 -8 7 -20 4 -28 -3 -7 0 -13 7 -13 6 0 8 5 5 10 -3 6 -2 10
4 10 5 0 13 -5 16 -10 10 -16 -23 -24 -40 -10 -12 10 -15 10 -16 -1 0 -11 -2
-11 -6 1 -9 23 -27 37 -41 32 -6 -2 -12 2 -12 8 0 7 8 10 20 7 11 -3 23 -1 26
4 3 5 0 9 -6 9 -7 0 -9 7 -6 16 3 8 2 12 -4 9 -6 -3 -10 1 -10 9 0 9 -5 16
-11 16 -5 0 -8 4 -4 9 3 5 1 12 -5 16 -6 4 -7 11 -3 18 4 7 10 0 16 -16 8 -24
11 -26 25 -15z m-127 20 c14 -6 15 -9 3 -20 -12 -11 -14 -10 -14 3 0 19 -14
19 -30 0 -11 -13 -10 -15 6 -9 14 4 16 3 5 -4 -7 -5 -10 -15 -6 -21 5 -9 10
-9 21 0 8 6 14 8 14 4 0 -4 -8 -14 -17 -22 -10 -8 -12 -12 -6 -8 9 4 11 1 7
-9 -3 -9 -10 -14 -15 -11 -4 3 -13 -4 -19 -15 -7 -13 -7 -20 0 -20 5 0 10 7
10 16 0 8 5 12 10 9 6 -4 17 -2 24 4 9 8 13 7 13 -4 0 -7 -3 -14 -6 -13 -20 2
-31 -3 -26 -13 4 -6 13 -8 21 -5 8 3 14 1 14 -5 0 -6 -8 -9 -17 -7 -10 1 -25
-1 -33 -6 -8 -5 -12 -6 -9 -2 4 4 -7 21 -23 38 -20 22 -28 39 -25 55 2 13 0
23 -4 23 -18 0 -8 16 11 17 23 2 26 -7 8 -26 -10 -10 -10 -15 -1 -18 7 -2 10
-10 7 -18 -9 -22 14 -27 26 -5 9 16 8 22 -5 26 -8 3 -15 11 -15 16 0 6 7 4 17
-3 15 -13 15 -12 2 9 -13 21 -12 25 5 38 22 15 24 16 47 6z m53 -17 c-18 -13
-18 -14 5 -8 17 4 22 3 17 -5 -4 -7 -1 -12 8 -12 9 0 16 -5 16 -11 0 -7 -10
-5 -25 5 -14 9 -25 13 -25 8 0 -4 -9 -8 -20 -9 -24 -2 -22 18 5 33 29 17 42
17 19 -1z m-364 -67 c0 -13 -25 2 -38 23 -13 21 -13 21 12 3 14 -11 26 -22 26
-26z m418 7 c4 -4 -2 -5 -13 -3 -15 2 -19 -2 -17 -17 2 -17 1 -18 -8 -5 -10
12 -11 11 -7 -7 4 -18 1 -23 -16 -23 -15 0 -18 3 -9 8 7 5 10 16 6 25 -4 11
-1 17 7 17 8 0 5 6 -7 14 -17 13 -15 14 19 6 21 -4 42 -11 45 -15z m-80 -10
c-3 -3 -9 2 -12 12 -6 14 -5 15 5 6 7 -7 10 -15 7 -18z m-658 6 c0 -10 -26 -9
-36 2 -4 4 2 7 14 7 12 0 22 -4 22 -9z m396 -27 c-5 -12 -2 -15 10 -10 12 4
14 1 9 -13 -4 -13 2 -27 16 -40 13 -12 20 -21 16 -21 -4 0 -23 16 -42 36 -28
29 -32 38 -22 49 16 19 20 18 13 -1z m449 7 c-3 -5 0 -13 6 -16 5 -4 8 -13 5
-21 -3 -8 0 -11 9 -7 8 3 12 10 8 17 -4 6 1 5 10 -3 9 -7 17 -19 16 -25 0 -6
-3 -5 -6 3 -5 11 -7 11 -14 0 -5 -8 -2 -21 9 -32 16 -18 16 -19 -3 -16 -11 2
-26 10 -34 17 -16 16 -26 9 -15 -10 5 -7 9 -16 10 -20 1 -5 2 -11 3 -14 0 -4
8 -1 16 6 13 10 15 9 15 -9 0 -35 -1 -36 -15 -33 -10 2 -13 -3 -9 -13 3 -8 9
-13 13 -11 4 3 7 -4 7 -14 0 -14 -3 -16 -13 -8 -10 8 -13 6 -13 -8 0 -16 -2
-17 -10 -4 -9 13 -14 7 -11 -12 2 -12 -9 -9 -26 7 -8 8 -18 13 -23 10 -4 -3
-13 1 -19 9 -7 8 -21 12 -31 9 -12 -3 -20 0 -20 6 0 7 4 10 9 7 15 -10 43 6
37 20 -3 8 -1 14 5 14 7 0 9 -11 5 -27 -6 -27 -6 -27 9 -9 12 17 17 18 28 6 9
-10 9 -12 0 -6 -18 10 -16 -9 2 -24 10 -9 15 -9 15 -1 0 6 7 11 15 11 8 0 15
8 14 18 0 10 -3 12 -6 5 -2 -7 -9 -13 -14 -13 -4 0 -6 6 -3 14 5 13 -13 25
-45 32 -18 3 -30 23 -32 49 0 11 -3 14 -6 8 -3 -10 -8 -9 -20 2 -19 19 -33 19
-33 0 0 -8 -5 -15 -11 -15 -5 0 -7 -6 -3 -12 6 -10 3 -9 -8 0 -23 18 -19 55 4
49 9 -3 16 0 15 5 -1 6 5 13 13 15 12 4 12 3 2 -5 -11 -7 -8 -11 10 -17 12 -4
27 -8 32 -9 5 0 12 -9 15 -19 6 -16 8 -16 26 -3 18 14 18 15 3 16 -10 0 -18 5
-18 10 0 12 22 9 31 -3 4 -5 16 2 28 14 l22 24 -21 17 c-14 11 -16 18 -8 21
21 9 30 8 23 -2z m-820 -23 c6 -5 -6 -6 -29 -3 -26 5 -36 3 -32 -4 5 -7 1 -8
-10 -4 -11 4 -13 8 -6 11 7 2 10 8 7 13 -7 11 56 0 70 -13z m720 -18 c-3 -5
-1 -10 6 -10 7 0 10 -2 7 -5 -3 -3 -13 -2 -22 1 -14 5 -15 9 -4 15 17 11 20
11 13 -1z m-700 -10 c3 -5 2 -10 -4 -10 -5 0 -13 5 -16 10 -3 6 -2 10 4 10 5
0 13 -4 16 -10z m-108 -48 c-9 -2 -15 -8 -12 -13 4 -5 1 -9 -4 -9 -14 0 -14
13 1 28 6 6 16 8 22 4 7 -4 4 -8 -7 -10z m803 -28 c7 -7 1 -9 -20 -6 -16 2
-30 8 -30 11 0 11 39 6 50 -5z m-536 -6 c-3 -5 -9 -6 -14 -3 -4 3 -10 0 -12
-7 -3 -8 -6 -7 -10 3 -4 11 1 15 17 15 13 0 21 -4 19 -8z m278 -28 c5 0 6 5 2
11 -4 8 0 8 15 0 23 -13 29 -23 7 -15 -9 3 -16 -4 -20 -21 -6 -23 -8 -24 -22
-10 -8 8 -20 15 -26 15 -6 0 -9 3 -6 6 4 3 16 0 28 -6 19 -10 20 -10 9 8 -8
12 -20 17 -35 14 -17 -3 -24 0 -24 11 0 23 33 27 49 5 7 -10 18 -18 23 -18z
m-166 -1 c4 -23 3 -23 -11 -5 -18 24 -19 39 -3 34 6 -2 13 -15 14 -29z m416
-1 c-7 -7 -16 -6 -29 1 -16 11 -15 11 6 5 17 -4 21 -3 16 6 -6 9 -4 11 4 5 9
-5 9 -11 3 -17z m-517 -8 c7 -12 -2 -12 -30 0 -19 8 -19 9 2 9 12 1 25 -3 28
-9z m125 -10 c-6 -11 -12 -20 -14 -20 -2 0 -2 9 1 20 3 11 9 20 15 20 5 0 4
-9 -2 -20z m187 -4 c-9 -7 -17 -18 -17 -25 0 -6 -4 -11 -10 -11 -5 0 -10 3
-10 7 0 11 44 51 50 46 3 -3 -3 -10 -13 -17z m-631 -44 c10 -10 18 -11 27 -4
8 7 17 7 27 -1 22 -17 22 -33 0 -33 -14 0 -16 4 -9 12 7 8 6 14 -1 19 -5 3
-10 2 -10 -3 0 -5 -9 -12 -19 -15 -15 -4 -19 -13 -17 -46 1 -23 -1 -44 -4 -46
-4 -2 -7 1 -8 8 0 7 -2 21 -3 32 -1 11 1 32 4 48 4 20 1 30 -14 37 -22 12 -27
-8 -7 -28 9 -9 9 -15 0 -24 -9 -9 -16 -7 -32 10 -12 12 -16 22 -11 22 6 0 14
-8 20 -17 5 -10 13 -15 16 -11 4 4 0 17 -9 30 -22 30 -20 41 5 35 14 -4 19 -2
15 8 -2 7 -2 16 2 20 4 4 9 -3 10 -16 2 -12 10 -29 18 -37z m18 22 c5 -14 4
-15 -9 -4 -17 14 -19 20 -6 20 5 0 12 -7 15 -16z m136 -5 c0 -6 -4 -7 -10 -4
-5 3 -10 11 -10 16 0 6 5 7 10 4 6 -3 10 -11 10 -16z m80 4 c0 -2 -6 -3 -12
-2 -25 3 -39 -1 -34 -10 3 -4 17 -7 30 -6 14 2 31 -4 38 -13 11 -13 11 -14 -2
-7 -25 16 -72 14 -66 -1 3 -8 -1 -14 -9 -14 -9 0 -12 6 -9 15 5 12 2 13 -12 8
-17 -6 -17 -5 -4 8 23 24 52 37 67 32 7 -3 13 -7 13 -10z m100 6 c0 -6 -7 -8
-16 -5 -9 3 -12 2 -9 -5 4 -6 21 -8 38 -5 31 6 31 6 7 -6 -14 -6 -28 -12 -32
-12 -3 -1 -10 -4 -14 -8 -4 -5 -12 -8 -18 -8 -6 0 -3 5 7 11 25 15 11 32 -16
18 -19 -9 -18 -7 3 10 28 23 50 27 50 10z m74 0 c-2 -4 2 -10 8 -12 9 -4 7 -6
-3 -6 -9 -1 -21 5 -27 12 -8 10 -6 13 8 13 10 0 17 -3 14 -7z m-574 -18 c0 -5
-7 -11 -14 -14 -10 -4 -13 -1 -9 9 6 15 23 19 23 5z m37 3 c-3 -3 -12 -4 -19
-1 -8 3 -5 6 6 6 11 1 17 -2 13 -5z m40 0 c-3 -3 -12 -4 -19 -1 -8 3 -5 6 6 6
11 1 17 -2 13 -5z m180 -8 c-1 -6 6 -11 15 -11 9 0 20 -5 25 -10 4 -6 4 -7 -1
-3 -5 4 -15 3 -21 -2 -9 -7 -17 -4 -28 13 -12 19 -13 24 -2 24 8 0 13 -5 12
-11z m461 -9 c8 -6 12 -6 12 2 0 6 5 11 10 11 7 0 7 -7 0 -20 -6 -11 -16 -17
-22 -14 -8 5 -9 1 -5 -10 4 -11 3 -15 -4 -10 -6 3 -9 15 -6 25 4 14 0 19 -14
19 -10 0 -19 4 -19 10 0 10 27 3 48 -13z m-128 -9 c0 -4 -4 -8 -9 -8 -6 0 -12
4 -15 8 -3 5 1 9 9 9 8 0 15 -4 15 -9z m459 -24 c-12 -15 -29 -10 -29 9 0 7 4
6 11 -3 9 -12 10 -10 6 8 -5 19 -3 21 9 11 11 -9 11 -15 3 -25z m-1042 4 c-3
-8 -6 -5 -6 6 -1 11 2 17 5 13 3 -3 4 -12 1 -19z m508 12 c-3 -5 -14 -10 -23
-10 -15 0 -15 2 -2 10 20 13 33 13 25 0z m590 -8 c-3 -3 3 -10 12 -17 13 -9
13 -14 3 -20 -9 -5 -11 -4 -6 3 4 7 2 12 -3 12 -6 0 -11 -8 -11 -17 0 -15 -2
-15 -14 2 -16 22 -12 42 9 42 8 0 13 -3 10 -5z m-665 -17 c0 -8 -2 -15 -4 -15
-2 0 -6 7 -10 15 -3 8 -1 15 4 15 6 0 10 -7 10 -15z m104 3 c-3 -5 -10 -6 -15
-3 -5 4 -9 1 -9 -4 0 -6 5 -11 11 -11 6 0 8 -7 5 -16 -5 -14 -4 -15 9 -4 12
10 18 11 28 1 9 -10 8 -11 -7 -5 -13 5 -17 4 -12 -4 5 -8 0 -12 -14 -12 -15 0
-20 5 -17 14 3 7 1 18 -5 24 -13 13 -4 29 16 29 8 0 13 -4 10 -9z m41 2 c3 -5
1 -10 -4 -10 -6 0 -11 5 -11 10 0 6 2 10 4 10 3 0 8 -4 11 -10z m-330 -10 c-3
-5 -12 -10 -18 -10 -7 0 -6 4 3 10 19 12 23 12 15 0z m106 3 c-10 -4 -8 -9 9
-18 19 -10 20 -13 6 -18 -10 -4 -15 -3 -12 2 9 14 -20 21 -33 8 -6 -6 -11 -7
-11 -3 0 11 32 36 45 35 6 0 4 -3 -4 -6z m53 -2 c4 -5 -3 -7 -14 -4 -23 6 -26
13 -6 13 8 0 17 -4 20 -9z m86 -11 c6 -11 9 -20 8 -20 -2 0 -11 9 -21 20 -9
11 -13 20 -7 20 5 0 14 -9 20 -20z m-213 -6 c-3 -3 -12 -4 -19 -1 -8 3 -5 6 6
6 11 1 17 -2 13 -5z m173 -4 c0 -5 -8 -10 -17 -10 -15 0 -16 2 -3 10 19 12 20
12 20 0z m598 -21 c-3 -8 -7 -3 -11 10 -4 17 -3 21 5 13 5 -5 8 -16 6 -23z
m-609 -33 c14 -16 19 -25 11 -20 -8 4 -21 9 -28 10 -19 3 -28 14 -12 14 10 0
10 3 0 15 -7 8 -17 12 -24 8 -6 -4 -4 1 4 11 11 14 15 15 18 5 3 -8 16 -27 31
-43z m35 38 c3 -8 2 -12 -4 -9 -6 3 -10 10 -10 16 0 14 7 11 14 -7z m366 6 c0
-5 -5 -10 -11 -10 -5 0 -7 5 -4 10 3 6 8 10 11 10 2 0 4 -4 4 -10z m-589 -17
c13 -15 12 -15 -7 -5 -12 6 -25 8 -29 4 -5 -4 -5 -1 -1 6 10 16 21 15 37 -5z
m89 7 c0 -5 -5 -10 -11 -10 -5 0 -7 5 -4 10 3 6 8 10 11 10 2 0 4 -4 4 -10z
m687 -10 c-1 -11 -5 -20 -9 -20 -10 0 -10 4 -2 24 8 22 13 20 11 -4z m-87 2
c0 -16 -24 -42 -35 -38 -8 3 -16 0 -19 -7 -2 -7 -5 -4 -5 6 -1 14 4 17 19 12
22 -7 29 20 8 28 -7 3 -3 4 10 4 12 -1 22 -3 22 -5z m150 -12 c-12 -22 -30
-18 -30 6 0 8 9 14 20 14 18 0 19 -3 10 -20z m-736 -5 c-4 -8 -11 -15 -16 -15
-6 0 -5 6 2 15 7 8 14 15 16 15 2 0 1 -7 -2 -15z m700 -11 c3 -8 2 -12 -4 -9
-6 3 -10 10 -10 16 0 14 7 11 14 -7z m-797 -26 c-3 -7 -5 -2 -5 12 0 14 2 19
5 13 2 -7 2 -19 0 -25z m323 22 c7 12 9 11 8 -6 -2 -19 -5 -20 -25 -11 -12 5
-20 14 -16 20 3 5 9 3 14 -4 8 -12 11 -11 19 1z m285 0 c3 -5 1 -10 -4 -10 -6
0 -11 5 -11 10 0 6 2 10 4 10 3 0 8 -4 11 -10z m-65 -34 c7 -9 16 -16 21 -16
14 0 6 24 -11 32 -11 6 -10 7 5 5 11 -1 20 -7 20 -14 0 -6 3 -14 7 -18 4 -4 4
-13 1 -21 -4 -11 -7 -11 -20 1 -8 9 -19 12 -25 9 -6 -4 -8 -2 -5 3 8 13 -18
37 -31 29 -5 -3 -9 1 -9 9 0 16 26 6 47 -19z m169 8 c-9 -11 -8 -14 5 -14 9 0
16 7 16 15 0 9 6 12 15 9 8 -4 15 -11 15 -17 0 -6 -3 -7 -7 -4 -3 4 -12 2 -19
-4 -17 -14 -48 -3 -38 13 5 8 0 9 -15 5 -18 -4 -20 -3 -11 8 6 7 20 11 31 8
15 -4 17 -8 8 -19z m-735 -2 c3 -5 -1 -9 -9 -9 -8 0 -12 4 -9 9 3 4 7 8 9 8 2
0 6 -4 9 -8z m270 -8 c6 2 8 1 4 -1 -4 -3 -10 -4 -13 -4 -3 1 -14 -8 -26 -20
-11 -11 -24 -17 -27 -13 -4 3 -1 9 6 11 6 3 10 9 6 14 -3 5 0 8 8 7 7 -2 12 4
10 12 -3 12 -1 12 9 3 6 -6 17 -10 23 -9z m154 -12 c13 11 15 11 10 -3 -4 -9
-1 -22 5 -28 9 -10 9 -12 -3 -9 -21 4 -40 30 -38 53 1 17 1 16 5 -3 4 -20 7
-21 21 -10z m82 8 c6 -11 8 -31 4 -45 l-6 -26 -14 27 c-10 19 -11 30 -4 39 8
9 7 15 -2 18 -9 4 -10 6 -1 6 7 1 17 -8 23 -19z m130 16 c0 -3 -4 -8 -10 -11
-5 -3 -10 -1 -10 4 0 6 5 11 10 11 6 0 10 -2 10 -4z m190 -4 c0 -5 -7 -9 -15
-9 -8 0 -15 4 -15 9 0 4 7 8 15 8 8 0 15 -4 15 -8z m-725 -12 c3 -5 1 -10 -4
-10 -6 0 -11 5 -11 10 0 6 2 10 4 10 3 0 8 -4 11 -10z m95 0 c0 -5 -2 -10 -4
-10 -3 0 -8 5 -11 10 -3 6 -1 10 4 10 6 0 11 -4 11 -10z m157 -3 c26 5 34 3
29 -6 -4 -6 -11 -9 -16 -6 -17 11 -61 -7 -56 -22 3 -8 1 -11 -4 -8 -12 7 -13
38 -3 49 4 4 9 3 11 -3 2 -5 19 -7 39 -4z m107 -10 c-3 -8 2 -20 10 -27 9 -7
13 -17 10 -22 -3 -5 -12 3 -20 17 -8 15 -11 31 -8 36 8 14 14 11 8 -4z m213 7
c-3 -3 -12 -4 -19 -1 -8 3 -5 6 6 6 11 1 17 -2 13 -5z m-760 -29 c0 -8 -4 -12
-9 -9 -5 3 -6 10 -3 15 9 13 12 11 12 -6z m123 5 c0 -5 -2 -10 -4 -10 -3 0 -8
5 -11 10 -3 6 -1 10 4 10 6 0 11 -4 11 -10z m152 3 c-6 -2 -9 -10 -6 -15 4 -7
2 -8 -5 -4 -13 9 -5 26 12 25 9 0 8 -2 -1 -6z m176 -18 c-3 -3 -9 2 -12 12 -6
14 -5 15 5 6 7 -7 10 -15 7 -18z m312 21 c0 -3 -4 -8 -10 -11 -5 -3 -10 -1
-10 4 0 6 5 11 10 11 6 0 10 -2 10 -4z m24 -21 c-11 -7 -14 -17 -9 -26 6 -11
5 -12 -5 -2 -10 9 -10 15 -2 26 7 8 9 17 5 21 -4 4 0 4 10 0 16 -6 16 -7 1
-19z m90 14 c9 8 16 9 16 4 0 -11 -50 -36 -58 -29 -2 3 -1 13 2 23 6 14 9 15
16 3 7 -11 11 -11 24 -1z m-857 -21 c-3 -8 -6 -5 -6 6 -1 11 2 17 5 13 3 -3 4
-12 1 -19z m133 12 c0 -5 -5 -10 -11 -10 -5 0 -7 5 -4 10 3 6 8 10 11 10 2 0
4 -4 4 -10z m575 0 c-3 -5 2 -10 12 -10 17 -1 17 -1 0 -11 -9 -5 -21 -8 -26
-5 -5 3 -9 -4 -8 -17 0 -12 -2 -29 -4 -37 -3 -10 3 -15 17 -14 11 1 21 -5 21
-12 0 -7 -4 -11 -9 -8 -4 3 -8 -1 -8 -8 0 -9 -3 -9 -10 2 -5 8 -10 10 -10 4 0
-6 -6 -11 -12 -11 -7 0 -24 -3 -38 -6 -14 -4 -20 -4 -13 -1 7 3 9 13 6 22 -6
15 -4 15 10 4 11 -10 21 -11 34 -3 16 9 15 11 -9 20 -27 10 -39 31 -17 31 5 0
7 -4 4 -10 -3 -5 0 -10 8 -10 17 0 29 24 21 44 -3 7 2 21 11 30 18 18 30 21
20 6z m-51 -31 c-3 -5 -13 -8 -22 -8 -15 1 -15 2 1 6 15 4 16 7 5 21 -12 15
-11 16 4 3 10 -7 15 -17 12 -22z m161 -7 c-10 -2 -25 3 -33 12 -15 14 -13 15
17 3 23 -8 28 -13 16 -15z m-680 8 c3 -6 -1 -7 -9 -4 -18 7 -21 14 -7 14 6 0
13 -4 16 -10z m65 -5 c-14 -17 -30 -20 -30 -4 0 5 4 8 9 4 5 -3 12 -1 16 5 3
5 9 10 12 10 3 0 0 -7 -7 -15z m197 9 c-3 -3 -12 -4 -19 -1 -8 3 -5 6 6 6 11
1 17 -2 13 -5z m-137 -14 c0 -5 -2 -10 -4 -10 -3 0 -8 5 -11 10 -3 6 -1 10 4
10 6 0 11 -4 11 -10z m-32 -25 c-3 -3 -9 2 -12 12 -6 14 -5 15 5 6 7 -7 10
-15 7 -18z m296 10 c3 -8 1 -15 -3 -15 -5 0 -11 7 -15 15 -3 8 -1 15 3 15 5 0
11 -7 15 -15z m76 -1 c0 -2 -7 -4 -15 -4 -8 0 -15 4 -15 10 0 5 7 7 15 4 8 -4
15 -8 15 -10z m136 -3 c0 -11 -4 -17 -8 -15 -4 3 -8 12 -8 20 0 8 4 14 8 14 4
0 8 -9 8 -19z m134 15 c0 -3 -4 -8 -10 -11 -5 -3 -10 -1 -10 4 0 6 5 11 10 11
6 0 10 -2 10 -4z m-705 -35 c-3 -2 -11 1 -18 7 -8 7 -18 8 -22 4 -5 -4 -5 -1
-1 5 5 10 11 10 26 1 11 -7 17 -14 15 -17z m275 23 c0 -8 -19 -13 -24 -6 -3 5
1 9 9 9 8 0 15 -2 15 -3z m340 -27 c0 -4 -6 -2 -14 5 -8 7 -12 17 -9 22 5 8
23 -12 23 -27z m-682 -2 c-3 -3 -9 2 -12 12 -6 14 -5 15 5 6 7 -7 10 -15 7
-18z m106 9 c5 -14 4 -15 -9 -4 -17 14 -19 20 -6 20 5 0 12 -7 15 -16z m143 1
c0 -8 -4 -12 -9 -9 -4 3 -8 9 -8 15 0 5 4 9 8 9 5 0 9 -7 9 -15z m244 -4 c-11
-7 -10 -11 5 -21 13 -8 14 -10 3 -7 -9 3 -22 -3 -30 -14 -23 -33 -51 -23 -29
11 8 12 10 12 10 1 0 -14 15 -6 15 7 0 14 17 32 28 32 8 0 7 -3 -2 -9z m-340
-18 c13 -16 12 -17 -3 -4 -10 7 -18 15 -18 17 0 8 8 3 21 -13z m65 1 c19 -15
19 -15 -1 -6 -11 5 -27 12 -35 15 -13 5 -13 6 1 6 8 1 24 -6 35 -15z m101 -16
c-3 -8 -6 -5 -6 6 -1 11 2 17 5 13 3 -3 4 -12 1 -19z m103 2 c0 -5 -2 -10 -4
-10 -3 0 -8 5 -11 10 -3 6 -1 10 4 10 6 0 11 -4 11 -10z m-45 -20 c-3 -5 -12
-10 -18 -10 -7 0 -6 4 3 10 19 12 23 12 15 0z m294 -2 c7 11 9 10 15 -3 3 -9
10 -13 16 -10 15 9 12 -2 -6 -19 -8 -9 -20 -16 -27 -16 -6 0 -3 6 8 13 12 10
14 16 7 21 -7 4 -12 2 -12 -3 0 -8 -7 -7 -19 1 -11 7 -17 16 -14 21 3 5 9 3
14 -4 8 -12 10 -12 18 -1z m-584 -21 c-11 -6 -21 -5 -28 3 -9 8 -7 9 7 4 13
-5 17 -4 12 4 -5 8 -2 10 10 5 15 -6 15 -7 -1 -16z m175 13 c0 -5 -7 -7 -15
-4 -8 4 -15 8 -15 10 0 2 7 4 15 4 8 0 15 -4 15 -10z m147 -5 c0 -8 -4 -12 -9
-9 -4 3 -8 9 -8 15 0 5 4 9 8 9 5 0 9 -7 9 -15z m-117 -5 c0 -5 -5 -10 -11
-10 -5 0 -7 5 -4 10 3 6 8 10 11 10 2 0 4 -4 4 -10z m290 -5 c0 -12 -19 -12
-23 0 -4 9 -1 12 9 8 7 -3 14 -7 14 -8z m57 -9 c-3 -7 -1 -18 5 -24 12 -12 2
-32 -15 -31 -9 0 -9 2 1 6 6 2 12 9 12 14 0 6 -5 7 -12 3 -7 -4 -8 -3 -4 4 4
7 0 12 -11 13 -17 1 -17 2 0 6 9 2 17 9 17 14 0 5 3 9 6 9 3 0 4 -6 1 -14z
m-345 -20 c7 4 8 2 4 -5 -9 -13 -26 -5 -25 12 0 9 2 8 6 -1 2 -6 10 -9 15 -6z
m43 5 c3 -5 2 -12 -3 -15 -5 -3 -9 1 -9 9 0 17 3 19 12 6z m212 3 c-3 -3 -12
-4 -19 -1 -8 3 -5 6 6 6 11 1 17 -2 13 -5z m-127 -14 c0 -5 -2 -10 -4 -10 -3
0 -8 5 -11 10 -3 6 -1 10 4 10 6 0 11 -4 11 -10z m84 -2 c-3 -4 -11 -5 -19 -1
-21 7 -19 12 4 10 11 0 18 -5 15 -9z m-114 -33 c-5 -6 -6 -16 -2 -20 4 -5 1
-5 -6 -1 -9 6 -10 12 -3 20 7 9 7 17 -2 26 -10 12 -9 12 6 1 12 -10 14 -17 7
-26z m204 27 c2 -4 -10 -8 -27 -9 -30 -1 -30 -1 -7 7 14 4 26 8 27 9 1 1 4 -3
7 -7z m-354 -8 c0 -8 -19 -13 -24 -6 -3 5 1 9 9 9 8 0 15 -2 15 -3z m230 -4
c0 -5 -5 -10 -11 -10 -5 0 -7 5 -4 10 3 6 8 10 11 10 2 0 4 -4 4 -10z m-33
-22 c-3 -8 -6 -5 -6 6 -1 11 2 17 5 13 3 -3 4 -12 1 -19z m-77 2 c0 -5 -2 -10
-4 -10 -3 0 -8 5 -11 10 -3 6 -1 10 4 10 6 0 11 -4 11 -10z m193 -10 c-3 -12
-8 -19 -11 -16 -5 6 5 36 12 36 2 0 2 -9 -1 -20z m37 6 c0 -2 -7 -7 -16 -10
-8 -3 -12 -2 -9 4 6 10 25 14 25 6z m46 -21 c1 -8 -2 -13 -7 -9 -5 3 -9 12 -9
21 0 19 13 9 16 -12z m-231 -5 c-3 -5 -12 -10 -18 -10 -7 0 -6 4 3 10 19 12
23 12 15 0z m120 -8 c-3 -3 -11 0 -18 7 -9 10 -8 11 6 5 10 -3 15 -9 12 -12z
m85 -14 c0 -5 -7 -3 -15 6 -8 8 -15 18 -15 22 0 3 7 1 15 -6 8 -7 15 -17 15
-22z m-640 18 c0 -3 -4 -8 -10 -11 -5 -3 -10 -1 -10 4 0 6 5 11 10 11 6 0 10
-2 10 -4z m80 -6 c0 -5 -2 -10 -4 -10 -3 0 -8 5 -11 10 -3 6 -1 10 4 10 6 0
11 -4 11 -10z m240 -10 c-7 -4 -10 -12 -6 -18 3 -6 2 -14 -4 -17 -6 -4 -10 -3
-9 2 4 23 -2 35 -17 29 -8 -3 -13 -2 -10 3 3 5 17 9 32 9 16 0 21 -3 14 -8z
m26 -14 c0 -14 -5 -21 -9 -17 -4 4 -5 15 -1 24 9 24 12 21 10 -7z m-197 -26
c0 -10 -3 -8 -9 5 -12 27 -12 43 0 25 5 -8 9 -22 9 -30z m231 15 c-7 -9 -15
-13 -17 -11 -6 6 20 36 26 30 2 -2 -2 -10 -9 -19z m95 -5 c-3 -5 -14 -10 -23
-9 -14 0 -13 2 3 9 27 11 27 11 20 0z m90 0 c3 -5 1 -10 -4 -10 -6 0 -11 5
-11 10 0 6 2 10 4 10 3 0 8 -4 11 -10z m-335 -10 c0 -5 -2 -10 -4 -10 -3 0 -8
5 -11 10 -3 6 -1 10 4 10 6 0 11 -4 11 -10z m184 -5 c-4 -8 -11 -12 -16 -9 -6
4 -5 10 3 15 19 12 19 11 13 -6z m-149 -5 c3 -5 1 -10 -4 -10 -6 0 -11 5 -11
10 0 6 2 10 4 10 3 0 8 -4 11 -10z m240 -6 c13 -5 14 -8 3 -15 -8 -6 -1 -9 21
-9 19 0 31 -3 28 -7 -10 -9 -66 -10 -60 0 2 4 -2 7 -9 8 -10 0 -10 2 1 6 11 5
11 7 0 14 -16 10 -8 12 16 3z m-321 -12 c3 -5 -1 -9 -9 -9 -8 0 -12 4 -9 9 3
4 7 8 9 8 2 0 6 -4 9 -8z m401 -3 c11 -16 1 -19 -13 -3 -7 8 -8 14 -3 14 5 0
13 -5 16 -11z m-338 -33 c0 -8 -6 -12 -15 -9 -11 5 -11 7 0 14 7 5 13 9 14 9
0 0 1 -6 1 -14z m193 3 c0 -10 -27 -19 -34 -12 -12 12 -5 22 14 20 11 -1 20
-4 20 -8z m-85 -19 c3 -6 -1 -7 -9 -4 -18 7 -21 14 -7 14 6 0 13 -4 16 -10z
m129 -5 c-5 -11 -1 -14 12 -9 15 4 15 3 -2 -8 -12 -7 -19 -20 -17 -28 4 -13 3
-13 -6 0 -5 8 -8 17 -7 20 2 3 6 13 9 23 4 9 9 17 11 17 3 0 3 -7 0 -15z m-79
-4 c3 -5 0 -13 -6 -17 -7 -4 -9 -3 -5 4 3 5 0 13 -6 15 -9 4 -10 6 -1 6 6 1
14 -3 18 -8z m-130 -21 c3 -5 1 -10 -6 -10 -8 0 -8 -4 1 -15 19 -22 8 -25 -12
-3 -12 12 -14 18 -5 18 8 0 7 4 -3 10 -13 8 -13 10 2 10 9 0 20 -4 23 -10z
m-97 -55 c-3 -3 -9 2 -12 12 -6 14 -5 15 5 6 7 -7 10 -15 7 -18z m247 5 c3 -6
-1 -7 -9 -4 -18 7 -21 14 -7 14 6 0 13 -4 16 -10z m-158 -35 c0 -8 -4 -12 -9
-9 -5 3 -6 10 -3 15 9 13 12 11 12 -6z"/>
<path d="M3500 1455 c0 -2 6 -8 13 -14 10 -8 14 -7 14 2 0 8 -6 14 -14 14 -7
0 -13 -1 -13 -2z"/>
<path d="M3320 1419 c0 -5 5 -7 10 -4 6 3 10 8 10 11 0 2 -4 4 -10 4 -5 0 -10
-5 -10 -11z"/>
<path d="M3454 1405 c-4 -8 -10 -12 -15 -9 -5 3 -9 1 -9 -5 0 -5 5 -13 10 -16
6 -3 10 -1 10 4 0 6 5 11 10 11 6 0 9 -6 8 -12 -2 -8 5 -12 16 -10 11 2 15 -1
11 -7 -10 -17 11 -13 25 5 8 8 9 14 4 13 -11 -3 -64 18 -64 25 0 3 9 3 20 1
11 -2 18 0 15 6 -9 14 -35 11 -41 -6z"/>
<path d="M3095 1370 c-3 -5 -1 -10 4 -10 6 0 11 5 11 10 0 6 -2 10 -4 10 -3 0
-8 -4 -11 -10z"/>
<path d="M3120 1091 c0 -6 4 -12 8 -15 5 -3 9 1 9 9 0 8 -4 15 -9 15 -4 0 -8
-4 -8 -9z"/>
<path d="M2545 3280 c-3 -6 1 -7 9 -4 18 7 21 14 7 14 -6 0 -13 -4 -16 -10z"/>
<path d="M1224 3262 c4 -7 2 -21 -5 -30 -12 -15 -11 -15 6 0 16 15 17 20 6 30
-11 11 -13 10 -7 0z"/>
<path d="M1310 3259 c0 -5 5 -7 10 -4 6 3 10 8 10 11 0 2 -4 4 -10 4 -5 0 -10
-5 -10 -11z"/>
<path d="M2492 3263 c-10 -4 -9 -8 5 -19 10 -7 23 -13 28 -13 6 0 2 4 -8 10
-9 6 -15 14 -12 20 7 10 6 10 -13 2z"/>
<path d="M2555 3261 c-3 -5 -2 -12 3 -15 5 -3 9 1 9 9 0 17 -3 19 -12 6z"/>
<path d="M2807 3263 c-4 -6 0 -13 8 -17 8 -3 17 -1 20 5 4 5 12 6 18 3 8 -4 7
-2 -1 7 -11 12 -14 12 -21 0 -7 -11 -9 -11 -13 0 -3 9 -6 10 -11 2z"/>
<path d="M1573 3247 c0 -8 6 -14 14 -14 9 0 10 4 2 14 -6 7 -12 13 -14 13 -1
0 -2 -6 -2 -13z"/>
<path d="M2588 3253 c7 -3 16 -2 19 1 4 3 -2 6 -13 5 -11 0 -14 -3 -6 -6z"/>
<path d="M2640 3249 c-13 -9 -12 -10 3 -5 15 5 21 -3 19 -24 0 -3 8 -7 19 -7
10 -1 19 3 19 8 0 6 -4 8 -9 4 -5 -3 -12 4 -16 15 -7 23 -14 24 -35 9z"/>
<path d="M2370 3244 c0 -5 7 -18 15 -28 8 -11 15 -16 15 -10 0 5 -7 18 -15 28
-8 11 -15 16 -15 10z"/>
<path d="M2330 3229 c0 -5 5 -7 10 -4 6 3 10 8 10 11 0 2 -4 4 -10 4 -5 0 -10
-5 -10 -11z"/>
<path d="M2790 3236 c0 -2 7 -7 16 -10 8 -3 12 -2 9 4 -6 10 -25 14 -25 6z"/>
<path d="M955 3220 c-3 -5 -2 -18 4 -27 7 -14 9 -12 8 10 -2 30 -3 31 -12 17z"/>
<path d="M1506 3217 c3 -10 9 -15 12 -12 3 3 0 11 -7 18 -10 9 -11 8 -5 -6z"/>
<path d="M1617 3219 c7 -7 15 -10 18 -7 3 3 -2 9 -12 12 -14 6 -15 5 -6 -5z"/>
<path d="M2485 3219 c-4 -6 -5 -12 -2 -15 2 -3 7 2 10 11 7 17 1 20 -8 4z"/>
<path d="M2579 3228 c-1 -2 -3 -12 -4 -23 -2 -16 4 -20 29 -21 17 -1 23 1 14
3 -10 2 -18 9 -18 14 0 6 -5 7 -12 3 -8 -5 -9 -2 -5 9 5 13 1 25 -4 15z"/>
<path d="M2838 3223 c6 -2 9 -10 6 -15 -4 -7 -2 -8 5 -4 13 9 5 26 -12 25 -9
0 -8 -2 1 -6z"/>
<path d="M2780 3200 c0 -5 9 -8 20 -7 21 1 18 10 -5 13 -8 1 -15 -2 -15 -6z"/>
<path d="M1357 3193 c-13 -12 -7 -22 12 -20 15 1 17 4 9 14 -12 15 -13 15 -21
6z"/>
<path d="M2470 3186 c0 -2 7 -7 16 -10 8 -3 12 -2 9 4 -6 10 -25 14 -25 6z"/>
<path d="M2819 3173 c-13 -17 -13 -17 6 -3 11 8 22 16 24 17 2 2 0 3 -6 3 -6
0 -17 -8 -24 -17z"/>
<path d="M1310 3169 c0 -5 5 -7 10 -4 6 3 10 8 10 11 0 2 -4 4 -10 4 -5 0 -10
-5 -10 -11z"/>
<path d="M2645 3170 c-3 -6 -1 -9 6 -8 7 2 14 -3 15 -9 1 -7 2 -15 3 -18 0 -3
9 -2 19 4 11 6 21 5 29 -4 9 -10 8 -14 -7 -18 -13 -3 -18 -12 -16 -31 4 -30
16 -48 16 -23 0 14 4 14 40 0 22 -9 37 -19 35 -23 -3 -4 5 -10 16 -13 13 -4
18 -10 13 -18 -4 -8 -3 -10 4 -5 8 5 10 -3 7 -26 -4 -27 -3 -28 3 -8 8 25 8
25 14 3 6 -23 28 -32 28 -12 0 5 -4 8 -9 5 -5 -3 -12 5 -15 19 -8 32 -41 63
-92 85 -50 22 -61 36 -33 43 21 6 21 6 2 31 -17 24 -41 38 -28 16 9 -15 -6
-12 -26 6 -11 10 -19 12 -24 4z"/>
<path d="M2908 3173 c7 -3 16 -2 19 1 4 3 -2 6 -13 5 -11 0 -14 -3 -6 -6z"/>
<path d="M2936 3165 c-3 -8 -1 -15 4 -15 6 0 10 7 10 15 0 8 -2 15 -4 15 -2 0
-6 -7 -10 -15z"/>
<path d="M2477 3159 c7 -7 15 -10 18 -7 3 3 -2 9 -12 12 -14 6 -15 5 -6 -5z"/>
<path d="M2542 3161 c-10 -6 -10 -10 2 -20 11 -9 16 -9 22 0 5 8 3 9 -6 4 -10
-6 -12 -4 -7 8 7 19 7 20 -11 8z"/>
<path d="M2644 3129 c9 -14 13 -29 9 -32 -3 -4 -4 -7 -1 -7 3 0 12 8 19 18 7
9 10 14 5 10 -5 -4 -17 3 -28 15 l-19 22 15 -26z"/>
<path d="M2874 3135 c8 -10 13 -10 19 -1 5 8 10 7 17 -4 8 -13 10 -13 10 2 0
12 -8 16 -29 16 -23 -1 -26 -4 -17 -13z"/>
<path d="M2940 3131 c0 -6 4 -13 10 -16 6 -3 7 1 4 9 -7 18 -14 21 -14 7z"/>
<path d="M815 3120 c-3 -6 1 -7 9 -4 18 7 21 14 7 14 -6 0 -13 -4 -16 -10z"/>
<path d="M2850 3120 c0 -5 5 -10 11 -10 5 0 7 5 4 10 -3 6 -8 10 -11 10 -2 0
-4 -4 -4 -10z"/>
<path d="M2747 3095 c3 -8 9 -12 14 -9 12 7 11 11 -5 17 -10 4 -13 1 -9 -8z"/>
<path d="M2901 3101 c-11 -7 -9 -10 8 -16 19 -6 20 -9 9 -22 -12 -15 -11 -15
9 -3 24 15 21 30 -5 31 -14 0 -13 2 3 9 13 6 15 9 5 9 -8 0 -21 -3 -29 -8z"/>
<path d="M2787 3083 c4 -11 8 -11 21 -1 13 11 15 10 9 -4 -3 -10 -2 -18 4 -18
20 0 4 33 -18 35 -14 1 -19 -3 -16 -12z"/>
<path d="M2735 3040 c-3 -5 -2 -10 4 -10 5 0 13 5 16 10 3 6 2 10 -4 10 -5 0
-13 -4 -16 -10z"/>
<path d="M2854 3024 c0 -14 5 -20 14 -17 11 5 11 7 0 14 -12 8 -4 13 15 10 4
0 7 3 7 8 0 6 -8 9 -18 8 -11 0 -18 -9 -18 -23z"/>
<path d="M3056 3023 c27 -21 28 -23 7 -23 -12 0 -25 5 -28 10 -3 6 -11 10 -16
10 -6 0 -7 -4 -4 -10 3 -5 -2 -10 -12 -10 -15 0 -16 -2 -3 -10 10 -6 16 -6 18
0 2 6 8 10 13 10 4 0 6 -6 3 -14 -3 -8 -1 -17 5 -21 7 -4 8 0 4 11 -6 15 -4
15 20 -1 16 -10 27 -13 27 -6 0 6 -8 11 -17 11 -15 0 -16 2 -3 9 8 6 19 7 25
4 5 -3 4 0 -2 8 -7 7 -13 16 -13 20 0 4 6 9 13 12 6 2 -1 2 -17 -1 -16 -2 -26
0 -23 5 4 5 -1 10 -10 10 -11 0 -7 -8 13 -24z"/>
<path d="M2680 3029 c0 -5 5 -7 10 -4 6 3 10 8 10 11 0 2 -4 4 -10 4 -5 0 -10
-5 -10 -11z"/>
<path d="M2899 3023 c-13 -16 -12 -17 4 -4 16 13 21 21 13 21 -2 0 -10 -8 -17
-17z"/>
<path d="M2930 3021 c-12 -24 -13 -31 -1 -31 5 0 11 11 13 25 6 30 2 32 -12 6z"/>
<path d="M728 3013 c7 -3 16 -2 19 1 4 3 -2 6 -13 5 -11 0 -14 -3 -6 -6z"/>
<path d="M2948 2990 c-3 -22 0 -31 14 -36 10 -3 22 -3 27 0 10 6 47 -44 43
-57 -1 -5 2 -5 8 -2 8 5 6 13 -6 26 -9 10 -14 19 -9 19 4 0 -5 10 -21 23 -16
12 -33 21 -38 19 -5 -2 -6 6 -3 18 3 11 2 20 -3 20 -4 0 -10 -13 -12 -30z m39
-26 c-3 -3 -12 -4 -19 -1 -8 3 -5 6 6 6 11 1 17 -2 13 -5z"/>
<path d="M3110 3003 c6 -13 8 -23 4 -23 -3 0 -1 -7 6 -15 7 -8 16 -12 21 -9 5
3 9 -1 9 -8 0 -11 2 -10 9 0 7 11 9 11 14 -2 8 -22 -10 -30 -31 -14 -15 11
-15 11 -5 -3 12 -15 8 -29 -9 -29 -4 0 -7 6 -5 13 1 6 -6 11 -15 9 -10 -1 -29
5 -43 14 -29 19 -32 8 -6 -23 19 -23 38 -32 26 -13 -3 6 1 10 9 10 21 0 20
-30 0 -45 -13 -9 -14 -12 -2 -12 14 0 45 27 31 27 -4 0 -1 4 6 9 9 6 23 6 35
0 21 -10 21 -10 2 5 -20 16 -20 16 0 16 32 0 35 10 13 42 -17 23 -24 26 -35
17 -11 -9 -14 -8 -14 3 0 8 -7 23 -16 34 -14 18 -15 18 -4 -3z"/>
<path d="M2900 2973 c0 -7 -9 -21 -20 -31 -20 -18 -20 -19 -1 -36 12 -11 21
-14 26 -7 3 6 4 12 1 12 -3 1 -10 3 -16 4 -5 1 -13 3 -17 4 -5 1 -1 6 7 11 11
7 21 3 38 -18 17 -20 21 -22 15 -7 -4 11 -14 26 -22 33 -14 11 -12 13 14 8 27
-6 28 -5 10 6 -11 6 -23 16 -27 22 -5 8 -8 7 -8 -1z"/>
<path d="M2833 2926 c0 -7 8 -18 17 -24 16 -9 16 -8 6 14 -12 26 -23 31 -23
10z"/>
<path d="M2940 2920 c0 -6 7 -10 15 -10 8 0 15 2 15 4 0 2 -7 6 -15 10 -8 3
-15 1 -15 -4z"/>
<path d="M1176 2903 c-6 -14 -5 -15 5 -6 7 7 10 15 7 18 -3 3 -9 -2 -12 -12z"/>
<path d="M2766 2893 c-6 -14 -5 -15 5 -6 7 7 10 15 7 18 -3 3 -9 -2 -12 -12z"/>
<path d="M2790 2901 c0 -5 7 -11 14 -14 10 -4 13 -1 9 9 -6 15 -23 19 -23 5z"/>
<path d="M2986 2897 c3 -10 9 -15 12 -12 3 3 0 11 -7 18 -10 9 -11 8 -5 -6z"/>
<path d="M3197 2903 c-10 -9 -9 -23 1 -23 5 0 9 7 9 15 0 17 -1 18 -10 8z"/>
<path d="M2713 2887 c0 -8 6 -14 13 -14 7 0 10 6 7 14 -3 7 -8 13 -12 13 -4 0
-8 -6 -8 -13z"/>
<path d="M3220 2891 c0 -6 4 -13 10 -16 6 -3 7 1 4 9 -7 18 -14 21 -14 7z"/>
<path d="M2847 2874 c2 -7 11 -10 19 -7 19 7 18 10 -5 16 -13 3 -18 1 -14 -9z"/>
<path d="M2946 2867 c-25 -20 -27 -25 -12 -30 10 -4 14 -11 11 -17 -4 -6 5 -5
20 2 25 11 26 12 6 23 -20 10 -20 12 -4 28 25 24 13 21 -21 -6z"/>
<path d="M3017 2879 c7 -7 15 -10 18 -7 3 3 -2 9 -12 12 -14 6 -15 5 -6 -5z"/>
<path d="M3057 2873 c-13 -12 -7 -31 11 -38 13 -5 14 -3 5 6 -6 6 -9 18 -6 25
5 15 1 18 -10 7z"/>
<path d="M2765 2853 c11 -12 31 -24 45 -27 l25 -6 -26 13 c-14 6 -35 18 -45
26 -16 13 -16 12 1 -6z"/>
<path d="M2895 2860 c-3 -5 -1 -10 4 -10 6 0 11 5 11 10 0 6 -2 10 -4 10 -3 0
-8 -4 -11 -10z"/>
<path d="M3001 2854 c0 -11 3 -14 6 -6 3 7 2 16 -1 19 -3 4 -6 -2 -5 -13z"/>
<path d="M3132 2863 c-9 -3 -7 -10 9 -24 12 -11 16 -19 9 -19 -9 0 -10 -3 -1
-13 6 -8 8 -17 4 -20 -3 -4 -1 -7 5 -7 7 0 12 -5 12 -11 0 -6 -7 -8 -15 -5
-10 4 -19 -2 -25 -17 -5 -12 -10 -19 -11 -14 -6 24 -4 34 10 52 15 18 15 19
-1 7 -10 -8 -18 -9 -22 -3 -4 5 2 14 11 20 16 9 16 10 -4 8 -12 0 -21 -4 -20
-7 1 -3 -4 -15 -11 -27 -7 -13 -8 -23 -3 -23 5 0 11 8 13 18 2 9 6 13 10 7 3
-5 1 -21 -4 -35 -7 -20 -11 -22 -18 -10 -6 9 -10 10 -10 3 0 -6 -12 -16 -27
-21 -22 -8 -24 -11 -8 -11 14 -1 16 -4 8 -9 -7 -5 -27 -7 -44 -6 -17 1 -28 -1
-24 -4 3 -4 16 -7 27 -7 12 0 23 -7 26 -15 5 -13 3 -13 -12 -1 -15 12 -17 12
-14 0 2 -8 -3 -13 -9 -11 -14 2 -17 -10 -6 -21 3 -4 12 1 20 11 13 15 14 15 9
0 -2 -9 1 -19 9 -22 9 -3 12 0 8 10 -3 7 0 14 6 14 6 0 8 6 5 13 -3 8 2 14 11
14 8 0 15 -4 15 -9 0 -4 5 -8 11 -8 8 0 8 5 -1 15 -9 10 -9 15 -1 15 6 0 11 9
11 19 0 11 4 22 9 26 16 9 24 -15 11 -30 -11 -14 -7 -19 13 -16 7 1 11 -15 8
-31 0 -5 2 -7 7 -7 18 3 24 -2 14 -13 -7 -9 -6 -22 3 -43 l13 -30 -1 28 c-1
15 -6 27 -12 27 -5 0 -4 4 4 9 11 7 9 15 -11 41 -21 27 -23 36 -14 55 8 18 18
22 43 20 18 -1 36 -4 39 -8 11 -10 34 5 33 22 0 10 -2 11 -6 4 -8 -20 -23 -15
-16 5 7 16 6 16 -11 0 -9 -10 -22 -18 -27 -18 -14 0 -11 20 4 20 6 0 4 5 -5
11 -10 5 -18 15 -18 22 0 7 4 6 10 -3 5 -8 10 -10 10 -4 0 6 -11 21 -25 34
-13 12 -22 27 -19 31 6 10 5 10 -14 2z m-56 -148 c-1 -8 -8 -21 -15 -28 -10
-10 -12 -8 -9 8 1 11 8 23 13 27 13 10 14 10 11 -7z"/>
<path d="M3160 2866 c0 -2 7 -7 16 -10 8 -3 12 -2 9 4 -6 10 -25 14 -25 6z"/>
<path d="M3209 2866 c-1 -3 -2 -12 -3 -18 -1 -7 -8 -12 -15 -10 -7 1 -10 -2
-6 -7 3 -6 13 -7 23 -4 14 5 15 3 5 -8 -16 -16 -17 -29 -1 -29 6 0 8 3 4 7 -3
4 4 13 16 20 20 11 20 12 4 13 -12 0 -16 5 -13 15 4 8 2 17 -3 20 -6 4 -11 4
-11 1z"/>
<path d="M2737 2831 c2 -8 -2 -11 -12 -7 -8 3 -15 2 -15 -3 0 -5 9 -11 20 -14
13 -3 18 -1 13 6 -4 6 2 8 15 5 12 -4 20 -2 16 3 -3 5 -11 9 -19 9 -7 0 -15 3
-18 8 -2 4 -2 1 0 -7z"/>
<path d="M2846 2841 c-3 -5 1 -11 9 -14 9 -4 12 -1 8 9 -6 16 -10 17 -17 5z"/>
<path d="M3033 2811 c0 -11 5 -17 9 -15 4 3 8 1 8 -5 0 -5 -8 -11 -17 -13 -15
-3 -14 -5 5 -10 12 -3 20 -2 16 3 -3 5 -1 9 4 9 6 0 13 7 16 15 4 11 0 15 -12
13 -9 -2 -16 3 -14 10 1 6 -2 12 -7 12 -6 0 -9 -9 -8 -19z"/>
<path d="M2825 2788 c-11 -24 -12 -28 -2 -16 8 10 16 16 18 13 3 -2 5 5 5 15
0 27 -3 25 -21 -12z"/>
<path d="M2910 2810 c-9 -6 -10 -10 -3 -10 6 0 15 5 18 10 8 12 4 12 -15 0z"/>
<path d="M2990 2805 c0 -8 4 -15 10 -15 5 0 7 7 4 15 -4 8 -8 15 -10 15 -2 0
-4 -7 -4 -15z"/>
<path d="M3247 2809 c-17 -10 -16 -12 7 -30 13 -10 28 -19 32 -19 4 0 -1 7
-12 15 -15 11 -16 15 -4 16 8 1 19 1 23 0 5 -1 6 3 2 9 -3 6 -10 8 -15 5 -4
-3 -10 -1 -12 4 -2 6 -10 6 -21 0z"/>
<path d="M2796 2798 c3 -5 10 -6 15 -3 13 9 11 12 -6 12 -8 0 -12 -4 -9 -9z"/>
<path d="M2880 2792 c6 -13 14 -21 18 -18 3 4 -2 14 -12 24 -18 16 -18 16 -6
-6z"/>
<path d="M2950 2798 c-12 -8 -12 -9 3 -4 19 6 24 -10 15 -56 -2 -7 3 -12 11
-10 8 2 18 -3 24 -10 6 -9 7 -8 3 6 -5 14 -2 17 10 12 15 -6 15 -4 3 11 -37
49 -55 62 -69 51z m50 -42 c0 -2 -7 -9 -15 -16 -13 -11 -14 -10 -9 4 5 14 24
23 24 12z"/>
<path d="M2689 2788 c-11 -8 -11 -9 3 -5 9 3 19 -1 22 -9 3 -8 11 -14 18 -14
9 0 8 3 -2 10 -12 8 -12 10 -1 10 8 0 11 3 7 7 -11 11 -32 12 -47 1z"/>
<path d="M2775 2780 c-4 -6 -10 -8 -15 -5 -4 3 -6 -5 -2 -17 4 -16 7 -18 10
-8 3 8 9 21 15 28 5 6 7 12 4 12 -3 0 -9 -5 -12 -10z"/>
<path d="M2915 2781 c-3 -5 -2 -12 3 -15 5 -3 9 1 9 9 0 17 -3 19 -12 6z"/>
<path d="M2693 2755 c0 -8 4 -12 9 -9 5 3 6 10 3 15 -9 13 -12 11 -12 -6z"/>
<path d="M3296 2755 c-3 -10 -12 -15 -20 -12 -18 7 -10 -27 10 -44 8 -6 14
-18 14 -25 0 -8 5 -14 11 -14 5 0 7 4 4 10 -4 6 1 7 11 3 11 -4 15 -3 11 4 -4
6 -2 13 5 15 7 3 5 7 -6 11 -10 4 -15 3 -11 -3 3 -6 0 -10 -8 -10 -10 0 -13 7
-10 20 3 11 9 18 13 15 12 -7 6 23 -7 36 -7 7 -12 5 -17 -6z m17 -17 c-6 -7
-12 -20 -15 -28 -3 -9 -7 -10 -11 -3 -4 6 0 19 9 27 18 19 31 21 17 4z"/>
<path d="M2874 2739 c-10 -11 -12 -19 -6 -19 7 0 12 6 12 13 0 8 4 7 10 -3 12
-19 13 -33 1 -25 -5 3 -12 1 -16 -4 -3 -6 3 -8 15 -6 11 2 24 -3 30 -13 5 -9
10 -12 10 -5 0 6 -5 15 -11 18 -6 4 -8 14 -5 22 3 8 1 11 -4 8 -6 -3 -10 -2
-10 4 0 5 8 11 18 13 14 3 13 5 -5 10 -15 4 -28 -1 -39 -13z"/>
<path d="M3037 2749 c7 -7 15 -10 18 -7 3 3 -2 9 -12 12 -14 6 -15 5 -6 -5z"/>
<path d="M2723 2730 c-3 -11 -10 -17 -17 -14 -6 3 -2 -2 8 -10 11 -9 25 -16
30 -16 6 0 5 -4 -3 -9 -18 -12 -24 -41 -6 -35 7 3 15 -2 18 -10 4 -9 3 -16 -2
-16 -4 0 -8 -7 -8 -16 0 -15 1 -15 12 0 7 8 16 12 20 8 5 -4 1 5 -8 21 -13 19
-14 27 -5 27 10 0 10 2 0 9 -8 4 -13 11 -13 15 3 20 0 26 -10 20 -8 -5 -10 1
-7 20 6 30 -1 36 -9 6z"/>
<path d="M2806 2734 c-3 -9 -6 -17 -6 -18 0 -1 10 -2 23 -3 12 0 16 1 9 4 -6
3 -10 9 -7 13 3 5 1 11 -4 14 -5 3 -12 -1 -15 -10z"/>
<path d="M2755 2720 c3 -5 8 -10 11 -10 2 0 4 5 4 10 0 6 -5 10 -11 10 -5 0
-7 -4 -4 -10z"/>
<path d="M2781 2714 c0 -11 3 -14 6 -6 3 7 2 16 -1 19 -3 4 -6 -2 -5 -13z"/>
<path d="M2933 2715 c0 -7 6 -11 14 -8 7 3 13 6 13 8 0 2 -6 5 -13 8 -8 3 -14
-1 -14 -8z"/>
<path d="M3153 2714 c1 -21 27 -23 27 -2 0 5 -4 7 -9 4 -5 -4 -11 0 -14 6 -3
7 -4 3 -4 -8z"/>
<path d="M3195 2721 c3 -5 0 -15 -7 -23 -31 -32 -15 -42 35 -22 17 6 18 5 6
-15 -8 -12 -22 -24 -31 -27 -10 -3 -18 -10 -18 -15 0 -6 5 -7 10 -4 6 3 10 1
10 -6 0 -8 4 -8 15 1 9 7 13 15 10 18 -3 3 1 15 9 27 13 20 12 24 -8 48 -22
26 -44 38 -31 18z m15 -41 c-18 -11 -22 -7 -14 14 5 13 10 14 18 6 8 -8 7 -13
-4 -20z"/>
<path d="M2831 2696 l-24 -13 25 0 c14 0 25 5 25 13 0 8 -1 14 -1 14 -1 -1
-12 -7 -25 -14z"/>
<path d="M2687 2679 c6 -23 9 -24 16 -5 3 8 0 17 -7 19 -10 4 -12 -1 -9 -14z"/>
<path d="M3257 2680 c3 -11 1 -26 -4 -33 -6 -6 -13 -21 -16 -32 -7 -19 -6 -19
7 -2 19 25 25 23 47 -10 21 -32 25 -57 5 -30 -14 18 -32 24 -21 7 3 -5 2 -10
-4 -10 -5 0 -12 6 -14 13 -4 8 -6 6 -6 -4 -1 -9 -8 -16 -16 -16 -17 0 -20 13
-5 20 6 3 5 4 -2 3 -7 -2 -20 1 -30 5 -12 6 -16 5 -14 -6 1 -8 6 -18 11 -22 4
-4 5 -2 1 5 -13 22 9 12 27 -13 9 -13 13 -26 8 -30 -6 -3 -15 3 -21 12 -10 16
-11 16 -6 1 3 -9 0 -18 -7 -21 -6 -2 3 -10 20 -17 17 -8 29 -18 27 -22 -3 -4
2 -5 10 -2 16 6 23 25 9 23 -5 -1 -17 -1 -27 0 -18 1 -18 2 -1 21 10 11 14 20
10 20 -5 0 -3 6 3 12 10 10 15 10 22 -2 5 -9 4 -18 -4 -24 -11 -9 -9 -15 6
-29 18 -17 18 -17 14 8 -3 13 0 27 5 30 5 4 10 -2 11 -12 0 -10 2 -24 2 -30 2
-24 46 -8 46 16 0 11 -3 12 -8 4 -9 -14 -26 -5 -35 19 -5 15 14 43 24 34 2 -2
9 2 16 9 10 10 9 14 -3 19 -9 3 -12 1 -9 -4 3 -6 2 -10 -2 -10 -17 0 -35 41
-24 54 8 9 7 13 -4 13 -8 0 -12 -4 -9 -8 2 -4 -5 -7 -16 -6 -24 2 -25 5 -2 30
9 11 11 17 5 13 -8 -4 -13 -1 -13 8 0 9 -4 16 -9 16 -5 0 -7 -9 -4 -20z m38
-119 c3 -5 1 -12 -5 -16 -5 -3 -10 1 -10 9 0 18 6 21 15 7z"/>
<path d="M2872 2671 c-11 -6 -10 -10 4 -15 9 -3 19 -4 22 -1 3 3 0 5 -7 5 -7
0 -9 5 -6 10 7 12 4 12 -13 1z"/>
<path d="M2950 2666 c0 -9 5 -16 10 -16 6 0 10 4 10 9 0 6 -4 13 -10 16 -5 3
-10 -1 -10 -9z"/>
<path d="M2800 2662 c0 -6 5 -14 10 -17 6 -4 8 -10 6 -14 -3 -4 1 -8 9 -8 12
0 12 4 -2 21 -10 12 -19 23 -20 25 -2 2 -3 -1 -3 -7z"/>
<path d="M2843 2640 c12 -15 26 -27 31 -26 14 2 19 -76 6 -84 -6 -4 -3 -14 11
-25 12 -12 19 -14 17 -6 -2 7 4 18 13 24 18 11 49 3 49 -13 0 -7 -6 -8 -19 0
-14 7 -22 7 -26 0 -4 -6 -3 -10 2 -9 4 1 15 1 23 0 11 -1 11 -4 2 -13 -7 -7
-12 -16 -12 -21 0 -13 25 -2 26 11 3 22 4 23 18 10 8 -7 12 -17 9 -21 -3 -5 4
-4 14 2 11 6 23 8 25 5 3 -3 8 2 12 11 4 13 2 14 -14 5 -19 -10 -20 -8 -16 27
3 21 2 30 -1 20 -4 -15 -7 -16 -21 -5 -13 10 -13 8 1 -9 10 -11 15 -23 10 -26
-4 -3 -16 6 -26 18 -9 13 -13 26 -8 29 5 3 7 15 4 26 -4 16 -7 17 -19 5 -19
-18 -18 -25 4 -19 15 5 15 4 -1 -6 -14 -9 -22 -9 -33 0 -11 10 -14 9 -14 -9 0
-11 -4 -21 -9 -21 -6 0 -6 12 0 32 5 18 9 34 9 36 0 2 4 0 10 -3 6 -3 7 1 3
10 -4 12 -8 13 -13 5 -5 -8 -10 -6 -15 7 -5 10 -8 21 -7 25 1 4 -6 4 -15 1
-11 -4 -14 -3 -9 6 5 7 2 10 -6 9 -7 -2 -12 2 -11 8 1 6 -4 11 -12 11 -10 0
-7 -8 8 -27z"/>
<path d="M3101 2660 c3 -23 -12 -51 -24 -43 -6 3 -7 1 -3 -6 4 -6 12 -8 18 -5
8 5 9 1 5 -10 -4 -10 -3 -15 3 -11 6 3 10 1 10 -6 0 -7 3 -10 6 -7 3 4 0 16
-6 28 -8 14 -8 25 -1 33 6 9 7 18 0 27 -9 13 -10 13 -8 0z"/>
<path d="M3340 2660 c-12 -8 -12 -10 -1 -10 11 0 11 -3 1 -14 -9 -12 -7 -17 9
-28 23 -14 28 -34 9 -40 -8 -3 -6 -7 5 -11 9 -3 16 -3 16 1 -3 20 2 33 11 27
6 -3 10 -3 10 2 0 4 -14 14 -30 21 -19 9 -27 18 -23 25 7 11 14 37 10 37 -1 0
-9 -5 -17 -10z"/>
<path d="M2676 2647 c3 -10 9 -15 12 -12 3 3 0 11 -7 18 -10 9 -11 8 -5 -6z"/>
<path d="M2781 2644 c0 -11 3 -14 6 -6 3 7 2 16 -1 19 -3 4 -6 -2 -5 -13z"/>
<path d="M2914 2638 c0 -10 1 -18 3 -18 1 0 7 8 12 18 7 13 6 19 -2 19 -7 0
-13 -9 -13 -19z"/>
<path d="M3066 2638 c3 -5 10 -6 15 -3 13 9 11 12 -6 12 -8 0 -12 -4 -9 -9z"/>
<path d="M2938 2622 c-3 -11 0 -19 7 -19 7 0 10 8 7 19 -2 10 -6 18 -7 18 -1
0 -5 -8 -7 -18z"/>
<path d="M2960 2630 c0 -5 5 -10 11 -10 5 0 7 5 4 10 -3 6 -8 10 -11 10 -2 0
-4 -4 -4 -10z"/>
<path d="M2792 2598 c3 -15 0 -29 -6 -31 -7 -2 -5 -9 5 -19 14 -15 16 -13 15
22 -1 21 -5 42 -10 47 -5 4 -7 -4 -4 -19z"/>
<path d="M2989 2603 c-13 -16 -12 -17 4 -4 9 7 17 15 17 17 0 8 -8 3 -21 -13z"/>
<path d="M2823 2595 c0 -6 6 -12 12 -12 6 0 12 6 12 12 0 6 -6 12 -12 12 -6 0
-12 -6 -12 -12z"/>
<path d="M3133 2586 c7 -14 13 -23 15 -21 7 6 -9 45 -18 45 -4 0 -3 -11 3 -24z"/>
<path d="M2673 2585 c0 -8 4 -12 9 -9 5 3 6 10 3 15 -9 13 -12 11 -12 -6z"/>
<path d="M2705 2580 c-16 -17 -16 -20 -3 -15 9 4 19 13 22 21 7 19 2 18 -19
-6z"/>
<path d="M2742 2555 c-6 -14 -10 -25 -8 -25 2 0 11 11 20 25 9 14 13 25 8 25
-5 0 -14 -11 -20 -25z"/>
<path d="M2858 2561 c11 -7 11 -9 -1 -14 -16 -6 -12 -47 5 -47 5 0 4 8 -1 19
-8 15 -7 20 5 25 17 6 10 26 -9 26 -8 0 -8 -3 1 -9z"/>
<path d="M974 2536 c1 -8 5 -18 8 -22 4 -3 5 1 4 10 -1 8 -5 18 -8 22 -4 3 -5
-1 -4 -10z"/>
<path d="M2760 2546 c0 -2 7 -9 15 -16 9 -7 15 -8 15 -2 0 5 -7 12 -15 16 -8
3 -15 4 -15 2z"/>
<path d="M2700 2505 c-7 -9 -8 -15 -2 -15 5 0 12 7 16 15 3 8 4 15 2 15 -2 0
-9 -7 -16 -15z"/>
<path d="M2747 2506 c-4 -10 -1 -13 8 -9 8 3 12 9 9 14 -7 12 -11 11 -17 -5z"/>
<path d="M2795 2510 c-3 -5 -4 -10 0 -10 3 0 1 -10 -5 -22 -11 -22 -10 -22 4
-4 9 10 13 22 11 27 -3 4 3 10 12 12 16 4 16 5 1 6 -9 0 -20 -3 -23 -9z"/>
<path d="M3166 2512 c6 -7 10 -32 8 -55 -1 -23 0 -32 3 -19 2 13 11 26 19 29
8 3 14 9 14 14 0 4 -7 5 -17 2 -10 -4 -14 -2 -10 4 4 6 -1 17 -11 24 -11 9
-14 9 -6 1z"/>
<path d="M3365 2495 c0 -13 3 -21 8 -18 4 2 7 10 7 18 0 8 -3 16 -7 18 -5 3
-8 -5 -8 -18z"/>
<path d="M2864 2471 c12 -13 13 -20 4 -29 -16 -16 -29 -15 -22 2 3 9 -4 19
-18 27 -22 11 -22 11 -7 -7 9 -10 15 -27 14 -36 -4 -21 6 -23 24 -5 11 10 12
7 6 -13 -5 -19 -4 -21 4 -10 9 13 11 13 11 -2 0 -9 -5 -18 -12 -20 -9 -3 -9
-6 0 -12 17 -10 27 41 12 59 -11 14 -7 19 12 16 4 0 4 9 -1 21 -4 12 -16 22
-25 24 -16 2 -16 1 -2 -15z"/>
<path d="M2740 2452 c0 -15 -6 -34 -12 -41 -9 -9 -9 -12 -1 -7 6 3 14 0 16 -6
3 -7 6 8 6 35 1 26 -1 47 -4 47 -3 0 -5 -13 -5 -28z"/>
<path d="M3216 2464 c-3 -8 -9 -13 -14 -10 -4 2 -9 -6 -10 -19 -1 -13 4 -27
10 -31 8 -5 9 -2 5 10 -5 13 -3 17 7 13 11 -4 14 2 14 24 -1 33 -3 36 -12 13z"/>
<path d="M2915 2460 c3 -5 8 -10 11 -10 2 0 4 5 4 10 0 6 -5 10 -11 10 -5 0
-7 -4 -4 -10z"/>
<path d="M3252 2449 c-8 -12 -9 -18 -3 -15 5 4 13 -3 16 -15 6 -17 9 -19 16
-8 6 10 9 8 9 -9 0 -13 -3 -21 -8 -18 -4 2 -8 -9 -8 -25 -2 -27 0 -28 12 -12
12 16 15 16 24 3 7 -11 10 -11 10 -2 0 7 -7 15 -15 19 -14 5 -14 8 -1 29 15
21 14 24 -11 43 -14 12 -20 21 -13 21 8 0 22 -8 33 -17 11 -10 17 -12 13 -5
-5 7 -1 12 10 12 32 0 5 13 -33 16 -30 3 -41 -1 -51 -17z m54 -32 c6 -9 5 -9
-8 0 -8 7 -17 10 -20 7 -3 -2 -8 2 -12 11 -4 13 -2 14 14 5 10 -5 22 -16 26
-23z"/>
<path d="M3360 2453 c0 -17 20 -27 32 -15 6 6 6 12 -1 16 -6 4 -11 1 -11 -6 0
-9 -3 -9 -10 2 -6 9 -10 10 -10 3z"/>
<path d="M2766 2434 c-8 -20 -8 -24 2 -24 4 0 8 9 9 20 2 24 -3 26 -11 4z"/>
<path d="M2940 2447 c0 -2 9 -10 19 -19 18 -16 20 -15 18 1 0 9 -9 18 -19 18
-10 1 -18 1 -18 0z"/>
<path d="M2796 2428 c3 -5 10 -6 15 -3 13 9 11 12 -6 12 -8 0 -12 -4 -9 -9z"/>
<path d="M2906 2432 c-3 -5 1 -9 9 -9 8 0 12 4 9 9 -3 4 -7 8 -9 8 -2 0 -6 -4
-9 -8z"/>
<path d="M2911 2387 c-12 -31 -47 -61 -56 -48 -12 20 -26 12 -15 -8 14 -26 13
-31 -5 -25 -8 4 -15 13 -15 21 0 9 -6 12 -18 9 -14 -5 -18 0 -17 21 0 16 4 31
10 35 5 4 0 6 -13 5 -21 -1 -32 -17 -12 -17 6 0 10 -9 10 -19 0 -14 -6 -19
-24 -17 -21 3 -23 1 -13 -15 11 -17 12 -17 18 -2 4 12 8 14 13 4 5 -7 15 -10
23 -6 13 4 14 3 3 -10 -7 -8 -9 -15 -5 -15 4 0 2 -7 -5 -15 -7 -9 -10 -18 -7
-21 8 -8 28 5 23 15 -3 4 -1 12 3 19 5 9 14 6 31 -10 14 -13 19 -23 12 -26 -7
-2 -12 -11 -11 -20 0 -11 2 -12 6 -4 7 18 23 4 23 -20 0 -13 5 -18 14 -15 8 3
17 3 19 -1 2 -4 2 -1 1 6 -2 6 1 12 5 12 5 0 12 -6 14 -12 3 -8 6 -6 6 5 1 9
-3 17 -9 17 -20 0 -10 47 13 58 12 6 16 11 8 11 -11 1 -11 4 -1 16 7 8 9 15 4
15 -11 0 18 20 30 20 5 0 3 -7 -4 -15 -7 -9 -10 -18 -6 -22 3 -3 6 -1 6 5 0 7
5 12 10 12 6 0 10 -7 10 -15 0 -21 13 -19 35 5 16 18 16 20 2 20 -10 0 -17 -8
-17 -17 0 -15 -2 -16 -9 -3 -6 8 -8 17 -5 21 9 15 -27 17 -58 4 -22 -9 -26
-14 -14 -15 14 0 16 -3 7 -13 -6 -8 -7 -18 -3 -22 4 -5 -1 -5 -11 -2 -10 4
-16 3 -13 -2 3 -5 -1 -12 -10 -15 -23 -9 -34 -7 -34 4 0 5 8 6 18 3 16 -7 16
-6 0 11 -17 16 -16 19 20 55 20 21 44 40 52 43 10 3 7 6 -8 10 -18 5 -25 1
-31 -15z m-31 -139 c0 -9 4 -8 10 2 8 13 10 13 10 -2 0 -25 -14 -29 -28 -7 -7
11 -8 19 -2 19 5 0 10 -6 10 -12z"/>
<path d="M3120 2395 c-11 -13 -10 -14 4 -9 9 3 16 10 16 15 0 13 -6 11 -20 -6z"/>
<path d="M2827 2386 c-12 -9 -14 -16 -8 -21 6 -3 11 -1 11 5 0 6 4 9 8 6 5 -3
9 1 9 9 0 8 -1 15 -1 15 -1 0 -9 -7 -19 -14z"/>
<path d="M1126 2348 c3 -5 10 -6 15 -3 13 9 11 12 -6 12 -8 0 -12 -4 -9 -9z"/>
<path d="M3456 2333 c-9 -23 1 -28 18 -10 13 13 13 16 2 20 -8 3 -17 -1 -20
-10z"/>
<path d="M3491 2316 c-9 -11 -9 -16 0 -22 7 -4 9 -3 5 4 -3 6 2 15 11 21 10 6
13 11 7 11 -6 0 -17 -6 -23 -14z"/>
<path d="M853 2275 c0 -8 4 -12 9 -9 5 3 6 10 3 15 -9 13 -12 11 -12 -6z"/>
<path d="M2935 2270 c-11 -5 -14 -9 -7 -9 7 -1 10 -5 7 -11 -10 -17 0 -11 18
10 18 21 14 24 -18 10z"/>
<path d="M3337 2271 c-17 -6 -17 -8 -4 -20 9 -7 13 -20 10 -29 -5 -12 0 -10
17 6 13 12 20 25 16 29 -4 4 -11 1 -16 -7 -8 -13 -10 -12 -10 2 0 9 6 19 13
21 6 3 8 5 2 6 -5 0 -18 -4 -28 -8z"/>
<path d="M3420 2270 c0 -5 5 -10 10 -10 6 0 10 5 10 10 0 6 -4 10 -10 10 -5 0
-10 -4 -10 -10z"/>
<path d="M2786 2239 c6 -10 -22 -30 -31 -21 -5 4 0 -5 11 -19 12 -17 25 -25
39 -22 19 4 19 4 1 -11 -18 -14 -18 -15 2 -13 11 0 19 4 16 8 -2 4 3 12 12 17
11 6 13 11 5 16 -6 4 -11 2 -11 -5 0 -7 -8 -5 -20 6 -22 20 -27 41 -7 28 16
-10 41 -14 32 -5 -4 4 -11 8 -16 8 -22 3 -23 6 -4 14 17 8 17 9 -7 7 -15 -1
-25 -4 -22 -8z m9 -39 c3 -5 2 -10 -4 -10 -5 0 -13 5 -16 10 -3 6 -2 10 4 10
5 0 13 -4 16 -10z"/>
<path d="M3028 2233 c-2 -5 -5 -24 -5 -43 -1 -21 1 -26 4 -12 2 12 8 22 13 22
4 0 6 -10 2 -22 -5 -22 -5 -23 15 -5 13 11 23 14 27 8 4 -6 13 -8 21 -4 11 4
13 1 9 -11 -4 -11 -11 -13 -23 -6 -13 6 -18 5 -18 -4 0 -15 27 -17 45 -3 8 6
12 6 12 -2 0 -6 5 -11 10 -11 15 0 7 22 -15 41 -10 9 -26 14 -34 11 -10 -4
-12 -1 -6 9 7 11 6 12 -6 2 -18 -15 -41 1 -32 23 5 14 -13 20 -19 7z"/>
<path d="M3366 2212 c5 -4 12 -11 15 -15 3 -5 9 -2 12 5 3 9 -3 14 -15 15 -11
1 -16 -1 -12 -5z"/>
<path d="M3220 2200 c0 -5 5 -10 11 -10 5 0 7 5 4 10 -3 6 -8 10 -11 10 -2 0
-4 -4 -4 -10z"/>
<path d="M3517 2195 c-3 -6 3 -11 12 -12 10 -1 18 4 18 11 0 16 -25 17 -30 1z"/>
<path d="M3339 2193 c-1 -5 -1 -12 0 -17 1 -5 -5 -6 -13 -3 -9 4 -13 1 -10 -6
2 -7 24 -12 53 -12 27 0 47 3 45 6 -2 4 8 10 23 14 18 4 23 9 15 14 -22 13
-57 5 -56 -12 1 -10 -3 -14 -10 -10 -6 4 -17 8 -24 9 -8 2 -17 6 -20 10 -4 4
1 4 11 1 9 -4 17 -2 17 3 0 12 -29 14 -31 3z"/>
<path d="M3516 2159 c3 -5 10 -7 15 -4 5 4 9 1 9 -4 0 -6 5 -11 12 -11 9 0 9
3 0 12 -14 14 -44 20 -36 7z"/>
<path d="M3450 2151 c0 -6 5 -13 10 -16 6 -4 8 -11 4 -16 -9 -15 -11 -79 -2
-79 5 0 9 6 9 13 1 6 2 21 3 32 1 11 6 28 10 38 5 10 6 21 2 24 -3 4 -6 1 -6
-6 0 -7 -5 -9 -10 -6 -6 4 -8 11 -5 16 4 5 1 9 -4 9 -6 0 -11 -4 -11 -9z"/>
<path d="M3500 2133 c-2 -13 -3 -29 -4 -35 -1 -7 -5 -16 -11 -20 -9 -7 7 -12
28 -9 4 0 7 -6 7 -15 0 -8 -4 -13 -9 -10 -5 4 -4 -5 2 -18 9 -20 14 -22 20
-10 4 8 13 14 19 14 6 0 3 -11 -6 -25 -16 -24 -16 -25 6 -25 17 0 20 -2 9 -9
-8 -5 -21 -7 -29 -3 -11 4 -13 2 -7 -8 6 -10 4 -12 -9 -7 -10 4 -15 3 -11 -3
3 -6 -1 -10 -9 -10 -18 0 -52 -48 -41 -58 4 -4 10 -1 12 6 3 6 9 12 14 12 6 0
7 -6 2 -12 -11 -19 -12 -38 -2 -38 5 0 9 5 9 10 0 18 2 25 11 42 7 14 5 16
-11 13 -11 -2 -18 0 -15 6 4 5 15 9 27 9 17 0 19 -4 14 -25 -8 -30 10 -34 19
-5 4 11 11 17 17 14 6 -4 8 -2 5 3 -4 6 1 17 10 24 15 12 16 12 10 -3 -4 -11
-2 -15 6 -12 7 2 13 14 14 24 1 13 -3 18 -10 14 -8 -5 -8 -3 1 7 17 19 15 28
-6 24 -11 -2 -19 3 -19 11 0 10 4 11 13 3 8 -7 14 -7 19 1 4 6 -7 15 -24 21
-18 6 -28 16 -24 22 3 5 2 7 -4 4 -12 -8 -31 27 -36 68 -3 24 -5 25 -7 8z m52
-195 c-6 -6 -15 -8 -19 -4 -4 4 -1 11 7 16 19 12 27 3 12 -12z"/>
<path d="M2940 2132 c0 -6 -8 -9 -17 -6 -15 5 -16 4 -3 -5 12 -9 9 -11 -15
-12 -16 0 -24 -3 -18 -6 16 -6 -13 -53 -30 -49 -7 1 -9 1 -5 -1 4 -2 4 -11 1
-19 -3 -8 -1 -14 3 -15 5 0 17 -2 27 -4 9 -2 15 1 11 6 -3 5 5 9 18 9 13 0 29
-10 37 -21 11 -19 11 -21 -1 -16 -8 3 -15 -1 -15 -8 0 -8 7 -11 16 -8 12 5 13
3 5 -6 -13 -14 -7 -61 8 -61 5 0 7 4 4 9 -8 13 18 21 35 10 8 -5 10 -9 5 -9
-5 0 -1 -9 8 -19 10 -11 15 -25 11 -30 -10 -18 -25 -12 -18 7 6 16 5 16 -12
-1 -14 -15 -20 -16 -26 -5 -5 8 -9 9 -9 2 0 -14 25 -36 33 -28 3 3 16 0 29 -7
20 -11 22 -11 10 3 -8 11 -9 18 -3 23 6 3 13 -6 17 -20 3 -14 10 -25 16 -25 5
0 7 4 4 9 -3 4 1 17 9 27 21 27 18 35 -9 28 -13 -3 -27 -1 -30 5 -4 7 -1 8 8
5 9 -3 16 -2 16 4 0 5 -10 9 -22 8 -20 -1 -23 4 -23 39 1 25 -5 45 -15 52 -13
10 -9 12 20 13 l35 1 -30 13 c-18 8 -32 9 -36 3 -4 -5 -9 -5 -13 1 -4 6 -14 8
-24 5 -15 -6 -15 -4 2 15 15 18 16 24 6 37 -15 18 -11 19 25 5 21 -8 26 -7 22
2 -2 8 -19 12 -41 12 -31 -2 -35 1 -25 12 7 8 9 17 5 21 -3 3 -6 1 -6 -5z m5
-46 c17 -12 17 -16 5 -30 -7 -10 -23 -16 -34 -14 -12 2 -26 -3 -32 -11 -9 -11
-11 -11 -11 3 0 9 4 16 9 16 4 0 8 6 8 13 0 13 19 37 30 37 3 0 15 -6 25 -14z
m35 -87 c0 -11 4 -17 10 -14 6 4 7 -1 3 -11 -4 -12 -3 -15 5 -10 7 4 12 3 12
-3 0 -5 -4 -13 -10 -16 -5 -3 -10 -1 -10 4 0 6 -8 11 -17 11 -15 0 -16 -2 -3
-10 9 -6 10 -10 3 -10 -20 0 -24 18 -6 29 11 6 13 11 5 11 -7 0 -11 4 -7 9 3
5 1 12 -5 16 -6 4 -8 11 -4 16 8 14 24 0 24 -22z"/>
<path d="M2910 2070 c-8 -15 -8 -20 2 -20 26 0 37 14 22 28 -11 10 -15 8 -24
-8z"/>
<path d="M3097 2115 c-14 -10 -15 -14 -5 -18 10 -4 10 -6 1 -6 -7 -1 -13 -8
-13 -17 0 -8 -4 -13 -9 -10 -4 3 -16 -3 -26 -14 -18 -19 -17 -20 10 -20 23 0
26 2 15 15 -11 13 -10 14 2 10 10 -4 18 2 22 17 l6 23 20 -24 c11 -13 20 -22
21 -20 6 30 6 40 -2 45 -5 3 -9 0 -9 -7 0 -8 -4 -8 -15 1 -20 17 -2 30 29 22
11 -3 18 -1 13 3 -13 15 -41 15 -60 0z"/>
<path d="M3163 2096 c-12 -27 -11 -48 3 -53 7 -2 9 8 6 27 -2 17 0 30 6 30 6
0 9 -10 7 -21 -3 -12 -1 -18 3 -15 4 4 7 13 7 19 1 7 7 11 14 9 20 -4 3 15
-18 21 -13 3 -22 -2 -28 -17z"/>
<path d="M2780 2080 c-9 -17 -8 -19 7 -13 15 6 16 4 5 -9 -15 -19 -2 -31 22
-22 11 4 16 1 16 -10 0 -9 5 -16 11 -16 5 0 7 -4 4 -10 -3 -5 -1 -10 5 -10 7
0 10 3 8 8 -3 4 -11 21 -18 39 -8 17 -22 34 -33 37 -10 2 -16 9 -12 15 3 6 4
11 1 11 -3 0 -10 -9 -16 -20z m30 -30 c0 -5 -5 -10 -11 -10 -5 0 -7 5 -4 10 3
6 8 10 11 10 2 0 4 -4 4 -10z"/>
<path d="M3140 2027 c0 -19 35 -23 46 -5 5 7 2 9 -8 5 -9 -3 -21 0 -27 6 -8 8
-11 7 -11 -6z"/>
<path d="M3075 2020 c-19 -8 -19 -9 3 -9 12 -1 22 4 22 9 0 6 -1 10 -2 9 -2 0
-12 -4 -23 -9z"/>
<path d="M2785 2009 c-4 -6 -5 -12 -2 -15 2 -3 7 2 10 11 7 17 1 20 -8 4z"/>
<path d="M3106 2005 c-10 -8 -23 -12 -27 -9 -5 3 -9 0 -9 -7 0 -10 -3 -10 -12
-1 -15 15 -28 16 -28 2 0 -5 6 -9 13 -7 6 1 11 -4 9 -11 -1 -9 4 -8 22 3 13 9
29 14 36 13 7 -2 14 5 15 15 2 9 3 17 2 17 -1 0 -11 -7 -21 -15z"/>
<path d="M3093 1963 c-3 -7 -10 -10 -16 -6 -5 3 -7 1 -3 -5 3 -6 1 -14 -5 -18
-6 -3 -15 0 -20 7 -11 18 -23 5 -15 -16 3 -9 11 -13 17 -9 6 3 16 0 21 -7 8
-11 9 -10 5 3 -3 9 0 19 8 22 8 3 15 0 17 -6 2 -5 10 -2 18 8 9 11 10 15 3 10
-7 -4 -13 -2 -13 3 0 6 5 11 10 11 6 0 10 4 10 8 0 14 -31 10 -37 -5z"/>
<path d="M3210 1955 c-8 -9 -8 -15 0 -20 6 -4 10 -3 9 2 -3 20 2 22 20 6 11
-9 18 -20 15 -25 -3 -4 -1 -8 4 -8 5 0 12 9 15 19 6 26 -45 47 -63 26z"/>
<path d="M2931 1924 c0 -11 3 -14 6 -6 3 7 2 16 -1 19 -3 4 -6 -2 -5 -13z"/>
<path d="M3166 1924 c-9 -24 -7 -31 5 -11 6 9 15 14 21 11 7 -4 8 -2 4 4 -10
17 -23 15 -30 -4z"/>
<path d="M2910 1906 c0 -14 4 -27 8 -30 5 -3 6 8 4 25 -5 35 -12 38 -12 5z"/>
<path d="M2981 1904 c0 -11 3 -14 6 -6 3 7 2 16 -1 19 -3 4 -6 -2 -5 -13z"/>
<path d="M3108 1913 c-21 -5 -23 -14 -5 -32 10 -10 9 -15 -5 -25 -12 -9 -14
-16 -7 -23 8 -8 8 -17 0 -31 -6 -10 -7 -22 -4 -26 3 -3 -1 -6 -10 -6 -20 0
-22 11 -4 29 6 8 7 11 1 8 -6 -3 -24 2 -41 12 -19 12 -35 16 -44 10 -20 -12
-31 -11 -23 3 4 7 3 8 -4 4 -8 -5 -12 3 -12 23 0 16 6 32 13 34 6 3 2 6 -11 6
-19 1 -22 -3 -17 -19 4 -12 2 -20 -5 -20 -6 0 -2 -10 9 -22 11 -11 18 -25 14
-31 -3 -5 -12 1 -20 14 -12 20 -13 21 -8 3 3 -13 0 -21 -7 -22 -7 0 -25 -3
-40 -6 -21 -5 -28 -3 -28 9 0 10 5 13 12 9 6 -4 8 -3 4 4 -3 6 -2 13 3 17 5 3
14 -2 19 -11 7 -12 11 -13 16 -5 10 16 -12 41 -30 34 -9 -3 -14 0 -12 7 2 7
-4 15 -12 17 -13 4 -13 3 0 -7 12 -9 10 -11 -10 -6 -21 4 -26 1 -27 -15 -1
-11 -14 -32 -28 -45 -30 -27 -40 -30 -32 -10 4 10 1 13 -9 9 -7 -3 -14 -12
-14 -20 0 -8 4 -12 9 -8 5 3 16 -1 24 -9 8 -9 24 -12 36 -9 14 3 21 1 21 -8 1
-9 8 -5 20 10 11 13 20 19 20 15 0 -5 5 -2 10 6 9 13 10 13 10 0 0 -10 9 -16
24 -16 14 0 24 2 24 6 -1 17 3 33 8 28 3 -4 17 0 31 7 18 10 32 11 45 4 24
-13 23 -19 -2 -14 -11 2 -22 -1 -25 -6 -4 -5 -10 -7 -15 -4 -4 3 -13 -2 -20
-10 -7 -8 -9 -15 -6 -15 4 0 2 -9 -4 -19 -7 -14 -7 -22 0 -26 6 -4 7 -11 4
-17 -4 -7 -2 -8 4 -4 7 4 12 1 12 -8 0 -8 4 -18 10 -21 7 -4 7 3 0 19 -9 24
-6 30 13 27 4 0 7 5 7 12 0 8 4 7 10 -3 13 -20 13 -4 -1 23 -10 21 -10 21 5 3
9 -11 16 -23 16 -28 0 -4 9 -8 21 -8 15 0 19 5 14 19 -8 26 29 35 49 12 14
-16 14 -18 1 -18 -8 0 -15 4 -15 9 0 4 -4 8 -9 8 -10 0 -9 -19 2 -36 8 -13
-16 -38 -26 -27 -4 3 -7 1 -7 -5 0 -6 4 -13 10 -17 5 -3 7 -12 4 -19 -3 -8 0
-17 6 -21 14 -9 -6 -35 -23 -31 -7 1 -9 1 -4 -1 4 -3 7 -9 7 -14 0 -5 -3 -8
-7 -6 -8 2 -13 -6 -13 -23 0 -5 7 -7 15 -4 8 4 15 12 15 18 0 15 30 17 48 3 6
-5 12 -15 12 -21 0 -6 -4 -5 -9 3 -5 8 -11 9 -15 3 -3 -6 -2 -13 3 -16 5 -3 7
-16 4 -29 -4 -21 -4 -21 10 -4 10 12 14 34 12 63 -2 28 1 42 8 37 6 -3 7 -1 3
5 -11 19 -24 14 -29 -10 l-4 -23 -2 23 c0 12 -8 25 -16 28 -8 4 -15 10 -15 16
0 5 4 7 9 4 5 -4 12 0 14 6 3 8 6 6 6 -4 1 -22 10 -22 35 -3 16 12 17 15 4 15
-9 0 -19 -6 -21 -12 -5 -11 -9 9 -6 28 0 4 -5 11 -13 16 -8 5 -4 7 15 4 18 -3
25 -1 21 6 -4 6 -1 9 6 6 8 -2 22 4 31 13 17 17 19 17 56 -2 39 -20 83 -20
108 1 16 13 16 31 0 42 -5 4 0 8 13 8 13 0 22 6 22 15 0 8 -5 15 -11 15 -5 0
-7 -4 -4 -10 3 -5 2 -10 -4 -10 -17 0 -22 18 -6 23 10 5 12 13 5 36 -4 16 -7
31 -5 33 2 2 -5 10 -17 17 -11 7 -17 8 -14 3 3 -5 -3 -12 -14 -15 -11 -3 -20
-1 -20 5 0 5 -4 7 -9 4 -5 -3 -11 3 -14 14 -4 14 -14 20 -35 20 -17 0 -34 -4
-37 -10 -3 -5 1 -10 9 -10 9 0 16 -9 16 -21 0 -11 -4 -18 -9 -15 -5 4 -11 2
-13 -3 -4 -11 -48 5 -48 19 0 5 5 10 11 10 5 0 7 -4 4 -10 -3 -5 3 -10 14 -10
11 0 23 5 27 12 5 8 2 9 -9 5 -10 -3 -17 -2 -17 3 0 16 -30 11 -37 -6 -5 -13
-7 -13 -14 -2 -11 17 -11 31 -1 24 5 -3 9 1 9 9 0 8 -1 14 -1 14 -1 -1 -9 -3
-18 -6z m160 -53 c6 0 9 -7 5 -16 -4 -11 -8 -12 -13 -4 -5 7 -17 10 -31 6 -22
-7 -23 -6 -6 8 12 9 14 16 8 21 -6 3 -11 11 -11 17 0 6 8 1 19 -10 10 -12 23
-22 29 -22z m57 0 c-3 -5 -1 -10 4 -10 6 0 11 -5 11 -11 0 -5 -5 -7 -10 -4 -7
4 -8 -3 -4 -20 6 -26 6 -26 -30 -21 -22 4 -36 2 -36 -5 0 -5 8 -9 18 -8 30 3
52 -1 52 -8 0 -16 -68 -8 -79 10 -8 13 -8 17 1 18 26 1 -28 18 -61 18 -19 1
-31 4 -27 8 11 11 79 12 93 1 7 -6 16 -2 25 10 11 16 27 26 46 31 2 1 0 -3 -3
-9z m-185 -12 c0 -17 2 -23 12 -36 6 -7 17 -11 25 -8 8 3 12 2 9 -3 -3 -5 1
-11 9 -15 8 -3 17 0 21 6 4 7 3 8 -4 4 -7 -4 -12 -2 -12 3 0 20 29 11 36 -11
5 -13 7 -26 6 -30 -1 -5 6 -8 16 -9 10 0 12 -3 5 -6 -7 -2 -13 -11 -13 -19 0
-8 -4 -14 -9 -14 -5 0 -7 10 -4 23 3 14 2 18 -4 10 -9 -13 -53 -14 -53 -1 0
13 18 18 22 6 3 -9 9 -8 21 4 10 9 13 19 8 23 -5 3 -13 1 -16 -5 -5 -8 -12 -7
-23 2 -12 10 -14 10 -8 1 4 -7 2 -13 -3 -13 -6 0 -11 6 -11 14 0 8 -5 18 -12
22 -8 5 -9 2 -5 -9 9 -23 -27 -42 -51 -28 -16 10 -15 11 3 12 11 1 26 2 32 2
7 -1 10 4 7 9 -3 5 -17 7 -31 3 -21 -5 -23 -4 -11 9 7 7 21 12 31 10 10 -1 15
1 12 7 -4 5 -10 7 -15 4 -10 -6 -33 29 -25 37 8 8 35 5 35 -4z m-280 -4 c0 -2
-7 -10 -16 -19 -13 -12 -14 -19 -4 -30 13 -16 11 -18 -37 -28 -33 -7 -39 11
-9 23 14 5 26 12 26 15 0 4 -4 4 -9 1 -5 -4 -4 5 2 18 7 14 20 24 29 23 10 -1
18 -2 18 -3z m51 -67 c-10 -9 -11 -8 -5 6 3 10 9 15 12 12 3 -3 0 -11 -7 -18z
m141 6 c-5 -10 -8 -28 -7 -40 1 -13 -2 -23 -7 -23 -4 0 -8 10 -8 23 0 18 -5
23 -22 22 -13 -2 -22 -8 -20 -15 3 -14 -15 -30 -35 -30 -7 0 -10 6 -7 14 3 8
12 12 21 9 13 -5 13 -3 4 15 -10 18 -9 21 4 16 8 -4 15 -1 15 4 0 6 8 9 18 7
10 -2 25 1 33 6 20 12 21 11 11 -8z m262 -29 c28 -11 19 -32 -11 -27 -20 3
-24 2 -14 -5 8 -6 9 -12 3 -16 -15 -9 -22 7 -15 32 6 23 12 26 37 16z m-170
-19 c-5 -11 -2 -13 12 -8 11 4 15 3 11 -4 -4 -6 -16 -13 -27 -16 -18 -5 -21 6
-11 41 1 1 5 2 11 2 5 0 7 -7 4 -15z m-39 -33 c-3 -3 -11 0 -18 7 -9 10 -8 11
6 5 10 -3 15 -9 12 -12z m-15 -32 c0 -5 -5 -10 -11 -10 -5 0 -7 5 -4 10 3 6 8
10 11 10 2 0 4 -4 4 -10z"/>
<path d="M3286 1831 c-20 -22 -11 -32 18 -21 15 5 16 9 7 15 -11 6 -11 9 0 16
8 5 9 9 3 9 -6 0 -19 -9 -28 -19z"/>
<path d="M3551 1901 c-11 -7 -9 -10 7 -15 19 -6 24 -28 9 -42 -6 -7 -11 10 -8
29 0 4 -3 7 -9 7 -5 0 -8 -10 -6 -22 3 -13 5 -30 6 -38 0 -11 6 -8 20 9 15 18
20 19 20 7 0 -9 -4 -16 -10 -16 -5 0 -10 -5 -10 -11 0 -5 5 -7 12 -3 6 4 8 3
5 -2 -3 -6 -2 -16 3 -24 5 -8 8 14 7 58 -2 74 -10 85 -46 63z"/>
<path d="M2875 1891 c-3 -5 -1 -12 4 -15 5 -3 11 1 15 9 6 16 -9 21 -19 6z"/>
<path d="M3430 1874 c0 -4 8 -13 18 -21 16 -13 16 -13 -2 -11 -10 2 -21 -3
-24 -11 -3 -8 0 -11 7 -7 7 5 9 1 4 -10 -5 -13 -3 -15 7 -9 9 5 11 4 6 -3 -4
-7 -2 -12 3 -12 6 0 11 12 11 26 0 14 4 23 10 19 14 -8 -4 -49 -24 -53 -11 -2
-22 10 -35 37 -17 40 -18 41 -29 19 -12 -22 -12 -22 -7 -1 3 12 2 24 -3 27
-19 12 -4 -56 18 -79 13 -14 20 -28 16 -32 -4 -4 -11 -1 -16 7 -8 13 -10 12
-10 -2 0 -10 -5 -17 -12 -15 -7 1 -12 -2 -13 -8 -1 -17 -31 -55 -38 -48 -4 3
-7 1 -7 -6 0 -7 -9 -11 -20 -9 -10 2 -19 0 -20 -4 -1 -28 1 -32 10 -18 8 12
10 12 11 -5 0 -19 1 -19 11 2 13 28 46 39 62 23 8 -10 8 -12 -4 -8 -20 7 -56
-27 -39 -38 8 -4 10 -3 5 4 -7 11 6 17 28 13 4 -1 19 5 32 14 14 9 24 11 24 5
0 -7 8 -9 21 -5 16 6 20 4 13 -6 -6 -10 -3 -10 11 1 17 14 18 13 12 -2 -8 -22
10 -23 37 -3 11 8 18 15 15 16 -2 0 -13 3 -24 5 -11 3 -33 5 -48 5 -17 -1 -26
3 -22 9 3 6 11 8 16 5 5 -4 9 -4 9 0 0 3 -11 10 -25 15 -25 9 -35 30 -14 30 5
0 7 -4 4 -10 -7 -11 6 -13 29 -4 9 3 13 11 9 18 -3 6 3 2 15 -8 31 -27 36 -16
6 13 -20 20 -25 21 -30 7 -3 -9 -10 -13 -15 -10 -10 6 15 35 28 33 19 -3 34 2
29 10 -4 5 0 12 6 14 10 4 10 6 1 6 -9 1 -7 7 4 21 19 22 33 26 33 9 0 -5 -6
-7 -12 -3 -10 6 -10 4 0 -7 12 -13 18 -38 6 -26 -4 3 -15 -4 -25 -16 -16 -20
-16 -24 -3 -45 14 -21 14 -25 -2 -36 -12 -9 -14 -15 -6 -20 7 -4 12 -1 12 6 0
9 3 9 10 -2 7 -11 10 -11 10 -2 0 7 5 10 10 7 6 -3 10 -2 10 4 0 5 -6 12 -12
14 -7 3 -2 6 12 6 20 1 26 7 28 26 1 18 -2 23 -13 19 -8 -4 -15 -1 -15 6 0 10
-3 10 -15 0 -15 -12 -11 -35 5 -25 5 3 11 1 14 -4 8 -13 -22 -7 -36 7 -9 9 -7
15 8 26 11 8 23 11 29 6 15 -13 36 3 26 19 -5 7 -13 11 -19 7 -5 -3 -12 12
-16 34 -6 41 -22 52 -32 25 -9 -21 -31 -19 -44 5 -10 19 -30 28 -30 14z m-25
-74 c-3 -4 2 -10 10 -14 8 -3 15 -11 15 -17 0 -7 -11 -2 -25 11 -22 21 -26 48
-4 34 5 -3 7 -9 4 -14z m-17 -79 c-2 -9 -7 -16 -12 -16 -5 0 -10 7 -11 16 -2
9 4 16 12 16 7 0 12 -7 11 -16z m19 -34 c3 -5 1 -7 -5 -3 -5 3 -12 0 -15 -6
-3 -10 -9 -9 -22 3 -16 15 -15 17 9 17 15 0 29 -5 33 -11z"/>
<path d="M2851 1751 c-10 -6 -10 -10 -1 -16 13 -8 24 -1 19 14 -3 6 -10 7 -18
2z"/>
<path d="M3578 1723 c7 -3 16 -2 19 1 4 3 -2 6 -13 5 -11 0 -14 -3 -6 -6z"/>
<path d="M3167 1690 c-9 -11 -27 -20 -39 -21 -13 0 -17 -3 -10 -6 7 -3 26 0
42 6 32 11 60 6 60 -11 0 -6 -6 -5 -15 2 -12 10 -15 10 -15 -2 0 -22 12 -29
27 -17 18 16 16 39 -4 55 -24 18 -26 17 -46 -6z m38 0 c3 -6 -1 -7 -9 -4 -18
7 -21 14 -7 14 6 0 13 -4 16 -10z"/>
<path d="M3445 1700 c3 -5 13 -10 21 -10 8 0 14 5 14 10 0 6 -9 10 -21 10 -11
0 -17 -4 -14 -10z"/>
<path d="M3572 1690 c-7 -11 -20 -20 -30 -20 -10 0 -18 -8 -19 -18 -1 -14 6
-19 28 -20 33 -1 44 11 44 51 0 32 -6 34 -23 7z m10 -42 c-7 -7 -12 -8 -12 -2
0 14 12 26 19 19 2 -3 -1 -11 -7 -17z m-22 2 c0 -5 -2 -10 -4 -10 -3 0 -8 5
-11 10 -3 6 -1 10 4 10 6 0 11 -4 11 -10z"/>
<path d="M3550 1689 c0 -5 5 -7 10 -4 6 3 10 8 10 11 0 2 -4 4 -10 4 -5 0 -10
-5 -10 -11z"/>
<path d="M3240 1672 c0 -12 4 -22 9 -22 10 0 9 26 -2 36 -4 4 -7 -2 -7 -14z"/>
<path d="M3454 1601 c0 -11 6 -17 13 -14 6 3 9 11 6 19 -7 20 -19 17 -19 -5z"/>
<path d="M3541 1578 l-14 -23 24 20 c13 11 26 21 28 22 2 2 -2 3 -10 3 -8 0
-20 -10 -28 -22z"/>
<path d="M2837 1573 c-3 -5 1 -14 9 -21 12 -10 14 -10 14 2 0 17 -16 30 -23
19z"/>
<path d="M3140 1567 c0 -9 4 -18 9 -21 5 -4 8 1 7 9 -3 21 -16 31 -16 12z"/>
<path d="M2910 1534 c0 -8 5 -12 10 -9 6 4 8 11 5 16 -9 14 -15 11 -15 -7z"/>
<path d="M2782 1525 c-12 -9 -26 -14 -31 -10 -5 3 -17 -2 -26 -12 -16 -15 -16
-18 6 -34 30 -23 58 -21 51 3 -2 10 -12 18 -21 18 -14 0 -14 -2 -1 -10 8 -5
11 -12 7 -17 -10 -9 -28 17 -20 30 2 4 14 7 26 5 15 -2 21 2 19 12 -3 11 -1
12 8 3 7 -6 9 -17 4 -25 -10 -16 -15 -88 -5 -88 3 0 12 9 19 21 10 15 10 19 1
14 -8 -5 -10 -4 -5 3 5 9 13 9 26 2 10 -5 22 -10 27 -10 10 0 9 57 -1 68 -4 4
-6 1 -4 -7 2 -7 -3 -16 -10 -18 -8 -3 -10 1 -6 11 4 11 2 15 -8 11 -9 -4 -18
4 -23 20 -10 25 -11 25 -33 10z"/>
<path d="M2766 1414 c2 -21 0 -23 -12 -13 -7 6 -20 9 -29 6 -8 -4 -17 -2 -19
2 -7 11 -53 2 -65 -13 -16 -20 6 -56 34 -56 14 0 25 5 25 11 0 8 5 8 15 -1 14
-12 19 -7 16 13 -1 5 3 6 8 3 5 -4 12 0 15 6 3 7 3 2 0 -12 l-5 -25 19 22 c13
14 18 31 15 48 -7 34 -21 41 -17 9z m-41 -17 c17 6 18 5 5 -9 -16 -17 -40 -7
-40 16 0 7 3 6 8 -2 5 -8 16 -10 27 -5z m-65 -7 c0 -5 -5 -10 -11 -10 -5 0 -7
5 -4 10 3 6 8 10 11 10 2 0 4 -4 4 -10z m30 -14 c0 -3 -4 -8 -10 -11 -5 -3
-10 -1 -10 4 0 6 5 11 10 11 6 0 10 -2 10 -4z"/>
<path d="M3224 1324 c1 -9 11 -21 22 -26 18 -9 18 -9 0 6 -11 9 -14 16 -7 16
7 0 9 5 6 10 -10 16 -23 12 -21 -6z"/>
<path d="M3210 1250 c6 -11 15 -18 21 -14 6 4 6 11 -2 20 -17 21 -31 17 -19
-6z"/>
<path d="M3000 1182 c0 -5 7 -9 15 -9 8 0 12 4 9 9 -3 4 -9 8 -15 8 -5 0 -9
-4 -9 -8z"/>
</g>
</svg>
